<svg xmlns="http://www.w3.org/2000/svg" version="1" width="256" height="256" viewBox="0 0 128 128"><rect width="100%" height="100%" fill="#FFF"/><g><path d="M61.5.05v18.52a45.2 45.2 0 0 0-15.52 3.62l-9.3-16.1A63.67 63.67 0 0 1 61.5.05z" fill="#0d0ab3"/><path d="M93.81 7.368l-9.26 16.038a45.2 45.2 0 0 0-15.25-4.625L69.294.188a63.67 63.67 0 0 1 24.515 7.18z" fill="#f8f8fd" fill-opacity=".03"/><path d="M118.132 29.86l-16.038 9.26a45.2 45.2 0 0 0-10.895-11.63l9.293-16.105a63.67 63.67 0 0 1 17.64 18.475z" fill="#e9e9f8" fill-opacity=".09"/><path d="M127.95 61.5h-18.52a45.2 45.2 0 0 0-3.62-15.52l16.1-9.3a63.67 63.67 0 0 1 6.04 24.82z" fill="#d6d6f2" fill-opacity=".17"/><path d="M120.632 93.81l-16.038-9.26a45.2 45.2 0 0 0 4.625-15.25l18.593-.005a63.67 63.67 0 0 1-7.18 24.515z" fill="#c1c1ec" fill-opacity=".25"/><path d="M98.14 118.132l-9.26-16.038a45.2 45.2 0 0 0 11.63-10.895l16.105 9.293a63.67 63.67 0 0 1-18.475 17.64z" fill="#aba9e4" fill-opacity=".35"/><path d="M66.5 127.95v-18.52a45.2 45.2 0 0 0 15.52-3.62l9.3 16.1a63.67 63.67 0 0 1-24.82 6.04z" fill="#9492dd" fill-opacity=".44"/><path d="M34.19 120.632l9.26-16.038a45.2 45.2 0 0 0 15.25 4.625l.005 18.593a63.67 63.67 0 0 1-24.515-7.18z" fill="#7a78d5" fill-opacity=".55"/><path d="M9.868 98.14l16.038-9.26a45.2 45.2 0 0 0 10.895 11.63l-9.293 16.105A63.67 63.67 0 0 1 9.868 98.14z" fill="#6260ce" fill-opacity=".65"/><path d="M.05 66.5h18.52a45.2 45.2 0 0 0 3.62 15.52l-16.1 9.3A63.67 63.67 0 0 1 .05 66.5z" fill="#4b48c6" fill-opacity=".75"/><path d="M7.368 34.19l16.038 9.26a45.2 45.2 0 0 0-4.625 15.25l-18.593.005a63.67 63.67 0 0 1 7.18-24.515z" fill="#3532c0" fill-opacity=".84"/><path d="M29.86 9.868l9.26 16.038a45.2 45.2 0 0 0-11.63 10.895l-16.105-9.293A63.67 63.67 0 0 1 29.86 9.868z" fill="#211eb9" fill-opacity=".92"/><animateTransform attributeName="transform" type="rotate" values="0 64 64;30 64 64;60 64 64;90 64 64;120 64 64;150 64 64;180 64 64;210 64 64;240 64 64;270 64 64;300 64 64;330 64 64" calcMode="discrete" dur="1200ms" repeatCount="indefinite"/></g></svg>