<?xml version="1.0" standalone="no"?>
<!DOCTYPE svg PUBLIC "-//W3C//DTD SVG 1.1//EN" "http://www.w3.org/Graphics/SVG/1.1/DTD/svg11.dtd" >
<svg xmlns="http://www.w3.org/2000/svg" xmlns:xlink="http://www.w3.org/1999/xlink" version="1.1">
<metadata></metadata>
<defs>
<font id="the_huntsmanregular" horiz-adv-x="954" >
<font-face units-per-em="2048" ascent="1638" descent="-410" />
<missing-glyph horiz-adv-x="508" />
<glyph unicode="&#xd;" horiz-adv-x="508" />
<glyph horiz-adv-x="0" />
<glyph horiz-adv-x="0" />
<glyph unicode=" "  horiz-adv-x="508" />
<glyph unicode="&#x09;" horiz-adv-x="508" />
<glyph unicode="&#xa0;" horiz-adv-x="508" />
<glyph unicode="!" horiz-adv-x="467" d="M111 1366q0 139 125 139q120 0 120 -141v-29l-100 -960h-45l-98 960zM121 133q0 162 115 162q114 0 114 -162q0 -76 -30.5 -119t-83.5 -43q-115 0 -115 162z" />
<glyph unicode="&#x22;" horiz-adv-x="645" d="M57 1339q0 164 115 164q119 0 119 -203q0 -100 -35 -192q-20 -57 -54 -101t-102 -106q27 47 43.5 80t28.5 68q23 57 43 147l-53 -6q-47 0 -76 40t-29 109zM356 1339q0 164 115 164q119 0 119 -203q0 -100 -35 -192q-23 -61 -52.5 -101t-101.5 -106q23 45 41.5 81t28.5 67 q21 53 45 147l-55 -6q-47 0 -76 40t-29 109z" />
<glyph unicode="#" horiz-adv-x="1198" d="M96 459l23 102h235l74 352h-235l20 103h238l90 430h102l-92 -430h215l90 430h100l-90 -430h236l-21 -103h-235l-76 -352h236l-21 -102h-235l-93 -430h-100l90 430h-213l-92 -430h-100l90 430h-236zM455 561h215l73 352h-213z" />
<glyph unicode="$" horiz-adv-x="1057" d="M45 129l131 258q27 -133 115 -225t211 -117v631l-53 26q-64 31 -100 52.5t-85 56.5q-158 119 -158 264q0 158 114 279t282 143v109h61v-105q86 0 121 -4t92 -27q74 -24 162 -84l-137 -260q-13 103 -76 180.5t-164 114.5v-569l148 -76q88 -47 143 -95t88 -121t33 -150 q0 -148 -107 -271q-32 -33 -63 -58.5t-72 -47.5q-65 -33 -168 -53v-134h-61v127l-58 -2q-102 0 -195 37t-204 121zM233 1167q0 -80 35 -127q6 -12 25 -28q6 -6 18 -17q41 -30 85 -56t106 -58v544q-115 0 -192 -74.5t-77 -183.5zM563 47q131 0 220 83t89 200q0 94 -57 162 q-37 38 -141 100l-111 55v-600z" />
<glyph unicode="%" horiz-adv-x="1300" d="M72 1139q0 166 82 274.5t211 108.5t207.5 -103.5t78.5 -273.5q0 -172 -82 -281.5t-209 -109.5t-207.5 107.5t-80.5 277.5zM127 0l940 1477h104l-938 -1477h-106zM195 1139q0 -328 165 -328q166 0 166 328q0 325 -166 325q-165 0 -165 -325zM649 332q0 176 80 282.5 t211 106.5t209 -101.5t78 -271.5q0 -176 -80 -284.5t-213 -108.5q-129 0 -207 102.5t-78 274.5zM770 338q0 -326 166 -326q168 0 168 326t-168 326q-166 0 -166 -326z" />
<glyph unicode="&#x26;" horiz-adv-x="1249" d="M72 365q0 108 47 214.5t127 178.5q37 30 84 59t98 51l-53 93q-33 55 -45.5 97t-12.5 91q0 143 106.5 247.5t252.5 104.5q94 0 159.5 -53t65.5 -131q0 -70 -40 -114t-99 -44q-115 0 -115 144q0 98 -92 98q-47 0 -86 -39t-39 -90q0 -31 7 -49.5t46 -83.5l238 -406 q102 248 272 248q68 0 106 -34t38 -91q0 -47 -37 -86t-84 -39q-8 0 -23.5 4t-36.5 10l-59 29q-16 8 -35 8q-74 0 -102 -108l301 -508q10 -16 36.5 -54t44 -58.5t33 -31t48.5 -22.5h-459q106 41 106 115q0 35 -22 61l-21 27q-41 -49 -65.5 -76t-52.5 -49q-127 -105 -281 -105 q-152 0 -254 113t-102 279zM197 465q0 -148 100 -254.5t240 -106.5q151 0 260 146l-336 567q-264 -115 -264 -352z" />
<glyph unicode="'" horiz-adv-x="346" d="M59 1217q68 219 68 316q-5 0 -44 44v4q0 2 216 192h4q-52 -204 -116 -340l-120 -216h-8z" />
<glyph unicode="(" horiz-adv-x="592" d="M100 735q0 324 142 586q43 84 92 155.5t104 127.5q29 28 59.5 49.5t67.5 40.5q-137 -197 -209 -402q-41 -118 -58 -249.5t-17 -307.5q0 -190 16 -312t57 -237.5t91.5 -213t119.5 -197.5q-35 16 -53 30q-72 50 -139.5 135t-130.5 205q-142 265 -142 590z" />
<glyph unicode=")" horiz-adv-x="592" d="M27 -225q157 233 220.5 449t63.5 511q0 299 -61.5 508t-222.5 451l43 -25q157 -110 278 -338q144 -276 144 -596q0 -307 -131.5 -578.5t-333.5 -381.5z" />
<glyph unicode="*" horiz-adv-x="848" d="M57 1190q0 35 23.5 56.5t58.5 21.5l25 -4l217 -72l6 10l-164 168q-24 29 -24 60q0 34 22.5 56.5t59.5 22.5q67 0 81 -65l48 -217h22l57 213q19 67 84 67q33 0 53.5 -20.5t20.5 -54.5q0 -35 -26 -66l-162 -164l8 -12l217 72l25 2q36 0 59 -20.5t23 -53.5t-25 -55.5 t-61 -22.5l-21 2l-219 55l-6 -20l157 -156q23 -22 23 -57q0 -31 -20.5 -51.5t-53.5 -20.5q-61 0 -76 60l-55 221h-16l-66 -219q-18 -64 -80 -64q-32 0 -53.5 21.5t-21.5 52.5q0 35 28 63l166 146l-10 26l-217 -59l-21 -2q-37 0 -61.5 22.5t-24.5 57.5z" />
<glyph unicode="+" d="M39 692v107h383v381h113v-379h378v-109h-383v-385h-110v385h-381z" />
<glyph unicode="," horiz-adv-x="346" d="M57 145q0 164 115 164q119 0 119 -205q0 -100 -35 -192q-20 -57 -54 -101t-102 -106q52 90 72 150q14 36 22.5 62t20.5 83l-53 -6q-47 0 -76 40t-29 111z" />
<glyph unicode="-" horiz-adv-x="528" d="M45 565v123h440v-123h-440z" />
<glyph unicode="." horiz-adv-x="344" d="M57 131q0 162 113 162q115 0 115 -162t-115 -162q-113 0 -113 162z" />
<glyph unicode="/" horiz-adv-x="465" d="M53 -152l269 1770h92l-271 -1770h-90z" />
<glyph unicode="0" d="M82 737q0 92 12 194.5t35 184.5q100 389 350 389q158 0 256 -164q64 -110 100.5 -270t36.5 -332q0 -280 -81 -491q-109 -277 -312 -277q-207 0 -315 277q-41 104 -61.5 228t-20.5 261zM268 737q0 -55 4 -130t11 -146q28 -234 74 -334t124 -100q49 0 89 52t63.5 163.5 t38 238.5t14.5 256q0 56 -4 127.5t-10 151.5q-27 225 -74 329.5t-125 104.5q-47 0 -88 -55.5t-61 -147.5q-27 -121 -41.5 -250t-14.5 -260z" />
<glyph unicode="1" d="M250 1348q72 24 95.5 33.5t92.5 41.5q62 25 82.5 37.5t65.5 44.5v-1362q0 -84 90 -143h-361q88 66 88 143v1020q0 90 -34.5 132t-118.5 53z" />
<glyph unicode="2" d="M57 0l29 49l70 115l41 69l120 189q201 311 265 444q84 168 84 264q0 101 -59.5 160.5t-162.5 59.5q-206 0 -358 -248q31 168 164 282.5t299 114.5q127 0 209 -82t82 -213q0 -102 -43 -206.5t-150 -258.5q-53 -80 -142 -200.5t-155 -200.5l-65 -80l-56 -82h244 q139 0 252 62q76 41 141 112l-106 -350h-703z" />
<glyph unicode="3" d="M78 248q0 74 38 118t99 44q49 0 82 -33t33 -80q0 -23 -8.5 -47.5t-16.5 -46.5q-16 -49 -16 -74q0 -45 33.5 -73.5t91.5 -28.5q116 0 198 94t82 227q0 148 -104.5 257.5t-267.5 131.5v33q143 18 238 117.5t95 228.5q0 105 -63.5 172.5t-163.5 67.5q-172 0 -319 -205 q43 154 157.5 254t247.5 100q119 0 199 -90t80 -225q0 -225 -224 -363q133 -45 209 -146t76 -241q0 -194 -131 -331.5t-317 -137.5q-142 0 -235 79t-93 198z" />
<glyph unicode="4" d="M55 410l643 1091v-987h164v-102h-164v-269q0 -88 93 -143h-359q86 57 86 143v267h-463zM188 514h328v557z" />
<glyph unicode="5" horiz-adv-x="958" d="M82 248q0 69 38 113.5t97 44.5q53 0 86 -31t33 -82q0 -27 -4 -40t-6 -20l-23 -45q-8 -28 -8 -47q0 -114 131 -114q121 0 204 117.5t83 291.5q0 162 -99.5 257t-269.5 95q-86 0 -182 -26l39 715h643l-62 -197h-526l-18 -328q47 17 91 23t91 6q196 0 321 -137t125 -357 q0 -213 -137 -364.5t-332 -151.5q-131 0 -223 80t-92 197z" />
<glyph unicode="6" d="M78 537q0 311 178 567q219 313 596 409q-197 -104 -305 -208q-195 -187 -242 -394q76 88 215 88q156 0 260.5 -141t104.5 -354q0 -232 -110.5 -383.5t-280.5 -151.5q-191 0 -303.5 153.5t-112.5 414.5zM258 492q0 -224 58.5 -345.5t164.5 -121.5q228 0 228 501 q0 199 -56.5 306.5t-158.5 107.5q-107 0 -171.5 -110.5t-64.5 -305.5v-32z" />
<glyph unicode="7" d="M80 1071l76 406h755l-141 -338q-47 -117 -96 -258q-41 -121 -70 -217q-47 -170 -70.5 -328t-23.5 -336h-186q24 260 59 397q12 43 25.5 87t31 89t27.5 70q4 12 22 47q7 25 111 232l90 196l76 160h-360q-226 0 -326 -207z" />
<glyph unicode="8" horiz-adv-x="961" d="M78 360q0 263 268 449l-37 33q-55 55 -73 82q-68 86 -68 202q0 152 97 261.5t233 109.5q120 0 205 -87t85 -210q0 -92 -52 -183t-144 -161q162 -141 227.5 -244.5t65.5 -214.5q0 -176 -117 -301t-283 -125q-170 0 -288.5 113t-118.5 276zM199 373q0 -142 85 -243 t205 -101q105 0 182 78.5t77 185.5q0 45 -17.5 95t-42 81t-137.5 141l-137 138l-25 24q-190 -168 -190 -399zM289 1249q0 -73 41 -133q39 -63 74.5 -101t136.5 -130q20 18 38.5 35.5t32.5 40.5q78 102 78 229q0 108 -58.5 179t-148.5 71q-84 0 -139 -53.5t-55 -137.5z" />
<glyph unicode="9" d="M72 975q0 235 107.5 380.5t283.5 145.5q188 0 301 -154.5t113 -416.5q0 -320 -177 -568q-114 -157 -278 -267.5t-320 -137.5l97 47q53 31 115.5 80t113.5 102q82 80 135 169t88 202q-28 -39 -88.5 -63.5t-130.5 -24.5q-153 0 -256.5 146.5t-103.5 359.5zM248 932 q0 -197 56 -300.5t161 -103.5q106 0 166.5 119t60.5 330q0 215 -59.5 344t-161.5 129q-104 0 -163.5 -131t-59.5 -365v-22z" />
<glyph unicode=":" horiz-adv-x="397" d="M86 131q0 162 113 162q55 0 85.5 -41t30.5 -121q0 -76 -30.5 -119t-85.5 -43q-113 0 -113 162zM86 725q0 76 29.5 120t83.5 44q55 0 85.5 -43t30.5 -121q0 -76 -30.5 -119t-85.5 -43q-52 0 -82.5 44t-30.5 118z" />
<glyph unicode=";" horiz-adv-x="399" d="M86 145q0 164 113 164q118 0 118 -205q0 -100 -34 -192q-23 -62 -52.5 -101.5t-101.5 -105.5q49 94 70 150q12 26 18 45.5t27 99.5l-54 -6q-49 0 -76.5 40t-27.5 111zM86 725q0 76 29.5 120t83.5 44q55 0 85.5 -43t30.5 -121q0 -76 -30.5 -119t-85.5 -43q-52 0 -82.5 44 t-30.5 118z" />
<glyph unicode="&#x3c;" horiz-adv-x="487" d="M45 625l395 360l-192 -358l194 -369z" />
<glyph unicode="=" d="M31 551v111h891v-111h-891zM33 817v111h891v-111h-891z" />
<glyph unicode="&#x3e;" horiz-adv-x="481" d="M45 254l201 371l-201 358l393 -358z" />
<glyph unicode="?" horiz-adv-x="780" d="M27 1300q0 91 69.5 148t179.5 57q191 0 320 -143t129 -356q0 -150 -81 -237t-226 -87q-49 0 -60.5 -2t-27.5 -16q-33 -21 -33 -89v-202h-68v368q0 17 6.5 37.5t16.5 38.5l20 21q27 18 60 26l90 6q90 0 142 58.5t52 156.5q0 56 -23.5 119.5t-68.5 126.5q-71 105 -176 105 q-72 0 -72 -88v-9v-8q0 -76 -37.5 -122t-97.5 -46q-49 0 -81.5 39t-32.5 98zM156 131q0 162 112 162q115 0 115 -162t-115 -162q-112 0 -112 162z" />
<glyph unicode="@" horiz-adv-x="1593" d="M119 788q0 113 39 216.5t106 195.5q94 127 225.5 206t278.5 95q25 4 50.5 4h39.5q275 0 451 -178t176 -455q0 -32 -2 -66t-8 -67q-33 -190 -128.5 -307t-207.5 -133q-13 -2 -35 -2q-80 0 -131 51t-43 123q-10 -37 -41 -74q-72 -84 -166 -84q-55 0 -102 23 q-78 35 -118 125t-40 239l8 72q31 195 137 318q51 61 107.5 89.5t113.5 28.5q121 0 179 -108l10 -21l18 117l101 -2l-78 -440l-29 -179q-4 -24 -4 -63t8 -63q21 -64 84 -64q15 0 36.5 7t48 28.5t63.5 65.5t64.5 113t41.5 161q8 51 8 112q0 238 -144 386.5t-372 148.5 q-22 0 -51 -3t-45 -5q-225 -33 -376.5 -219.5t-151.5 -446.5v-47q4 -22 7 -54t4 -39t13 -52q55 -224 214 -351t364 -127q88 0 169 23t167 76q49 28 100 74q65 55 111 116l41 -73l-52 -60q-118 -125 -255.5 -186.5t-288.5 -61.5q-314 0 -514.5 231.5t-200.5 585.5zM582 596 q0 -39 7 -69.5t19 -57.5q35 -74 117 -74q55 0 94 39q31 31 49.5 62.5t46.5 113.5q19 56 37 154l4 20l15 86q4 23 4 44.5v31.5q0 31 -2 45q-10 60 -47 92.5t-88 32.5q-31 0 -54 -10q-55 -23 -92 -73t-71 -154l-27 -101q-8 -49 -10 -92t-2 -90z" />
<glyph unicode="A" horiz-adv-x="1354" d="M-11 -25q94 71 127 165l575 1705l501 -1571q33 -94 123 -165h-422q83 52 83 118l-7 47l-102 330h-527l-158 -464q-10 -26 -10 -57q0 -63 64 -108h-247zM331 665h476l-231 737z" />
<glyph unicode="B" horiz-adv-x="1296" d="M65 -25q108 67 108 170v1426q0 101 -108 173q54 5 197 16t273 11q207 0 320.5 -37t199.5 -131q96 -115 96 -256q0 -153 -93.5 -254t-256.5 -125q67 -13 99 -22.5t101 -41.5q226 -114 226 -397q0 -162 -86 -298q-165 -264 -554 -264q-44 8 -104.5 13t-176.5 5zM395 44 q116 -22 204 -22q409 0 409 473q0 224 -91 327.5t-288 103.5h-234v-882zM395 1002l236 -2q301 0 301 342q0 217 -158 311q-69 42 -246 42l-133 -8v-685z" />
<glyph unicode="C" horiz-adv-x="1257" d="M90 746q0 450 219 735t564 285q83 0 154 -19.5t169 -70.5l-167 -318q0 141 -79.5 225.5t-206.5 84.5q-78 0 -171 -51q-162 -86 -245 -272t-83 -455q0 -352 121 -546.5t341 -194.5q164 0 318.5 105.5t242.5 278.5q-59 -271 -215.5 -431.5t-364.5 -160.5q-213 0 -382 174 q-215 225 -215 631z" />
<glyph unicode="D" horiz-adv-x="1341" d="M70 -23q108 64 108 170v1425q0 101 -108 169q120 10 233.5 20t196.5 10q377 0 573.5 -224t196.5 -649q0 -146 -27 -294.5t-76 -266.5q-89 -207 -241.5 -299.5t-408.5 -92.5q-103 0 -137 3q-94 12 -163 17l-34 3zM399 44q109 -22 177 -22q222 0 330 152q47 69 74 146.5 t47 200.5q32 209 32 394q0 248 -37 400.5t-118 241.5q-138 145 -379 145q-57 0 -126 -12v-1646z" />
<glyph unicode="E" horiz-adv-x="1247" d="M70 -8q51 34 77 73t26 98v1420q0 54 -22.5 92t-80.5 84h774h93q40 0 76 30q30 19 57 76l108 -503q-209 326 -572 326q-117 0 -165 -33t-48 -114v-554h402q108 0 157 34.5t79 132.5v-415q-13 67 -59 113q-30 34 -64 46.5t-101 12.5h-414v-728q0 -130 226 -130 q377 0 591 341l-150 -498q-17 27 -22 34q-15 23 -33.5 37.5t-45 19.5t-90.5 5h-799z" />
<glyph unicode="F" horiz-adv-x="1192" d="M70 -29q103 72 103 169v1394q0 53 -20.5 87.5t-82.5 85.5h787h46q21 0 41 5q62 17 94 113l115 -525q-31 53 -54 84.5t-49 60.5q-181 195 -453 195q-210 0 -210 -142v-586h424q181 0 207 174v-410q-31 94 -74.5 126.5t-132.5 32.5h-424v-698q0 -101 106 -166h-423z" />
<glyph unicode="G" horiz-adv-x="1381" d="M86 868q0 444 190.5 691t531.5 247q258 0 432 -108l-165 -317q-4 47 -11.5 83.5t-15.5 66.5q-61 204 -294 204q-138 0 -236 -81t-133.5 -198t-55.5 -273t-20 -327q0 -418 114.5 -615.5t357.5 -197.5q228 0 228 211v818q0 103 -105 169h432q-106 -71 -106 -169v-798 q0 -106 116 -155q-89 -66 -230 -108t-276 -42q-268 0 -474 167q-280 226 -280 732z" />
<glyph unicode="H" horiz-adv-x="1127" d="M59 -419q56 51 66 88q17 52 17 100v1804q0 114 -83 195v2h348v-1q-68 -71 -71 -97q-14 -29 -14 -90v-503h477v511q0 82 -83 171v1h348q3 0 3 -3q-82 -82 -82 -146q-2 0 -3 -56v-1389q0 -112 57 -164q0 -4 27 -28v-2h-350v3q83 63 83 162v885h-477v-1264q0 -118 86 -177 v-3h-349v1z" />
<glyph unicode="I" horiz-adv-x="571" d="M70 -20q108 67 108 173v1430q0 61 -32 103q-15 20 -25 30q-17 17 -51 45h437q-62 -55 -84 -90.5t-22 -87.5v-1430q0 -57 23 -97.5t80 -75.5h-434z" />
<glyph unicode="J" horiz-adv-x="849" d="M-20 282q0 68 32.5 107.5t86.5 39.5q70 0 101 -61q9 -20 13.5 -54t4.5 -102q0 -90 31.5 -132.5t101.5 -42.5q151 0 151 184v1377q0 50 -19 82.5t-78 80.5h399q-59 -45 -80.5 -80t-21.5 -83v-1264q0 -124 -32.5 -192.5t-115.5 -115.5q-102 -57 -223 -57q-153 0 -252 88 t-99 225z" />
<glyph unicode="K" horiz-adv-x="1217" d="M70 120q95 61 95 159v1318q0 79 -93 164h400q-61 -48 -82.5 -82t-21.5 -82v-619l516 619q41 45 41 73q0 50 -59 91h316l-47 -32q-98 -62 -162 -132l-444 -530l630 -942q64 -93 164 -159h-442q59 39 59 84q0 16 -5.5 31t-21.5 44l-545 823v-671q0 -98 102 -157h-400z" />
<glyph unicode="L" horiz-adv-x="1088" d="M74 -10q106 67 106 173v1425q0 54 -21 90t-85 87h433q-64 -51 -86 -87t-22 -90v-1403q0 -133 211 -133q313 0 493 340l-150 -493q-30 52 -67 71.5t-113 19.5h-699z" />
<glyph unicode="M" horiz-adv-x="1823" d="M8 -24q111 74 121 172l167 1423l3 20q0 49 -17.5 78.5t-81.5 81.5h350l349 -1302l337 1302h335q-54 -45 -73.5 -77t-19.5 -76v-25l224 -1427q17 -106 130 -170h-436q47 32 64.5 64t17.5 79l-3 29l-216 1403l-429 -1634l-453 1642l-169 -1411l-3 -19q0 -89 96 -153h-293z " />
<glyph unicode="N" horiz-adv-x="1257" d="M74 -28q99 64 99 163v1366q0 49 -19 82t-78 88h299l723 -1225v1150q0 52 -21 87t-82 83h273q-56 -48 -75 -82t-19 -88v-1678l-926 1562v-1345q0 -102 104 -163h-278z" />
<glyph unicode="O" horiz-adv-x="1311" d="M86 867q0 397 165 648t424 251q258 0 420.5 -248.5t162.5 -650.5q0 -397 -162.5 -648.5t-420.5 -251.5q-259 0 -424 251.5t-165 648.5zM299 867q0 -407 95.5 -618.5t280.5 -211.5q181 0 275.5 211.5t94.5 618.5q0 409 -94.5 619.5t-275.5 210.5q-185 0 -280.5 -210.5 t-95.5 -619.5z" />
<glyph unicode="P" horiz-adv-x="1182" d="M70 -30q100 62 100 160v1454q0 96 -100 158l96 9q43 0 144 7t144 7q165 0 276 -27.5t200 -89.5q192 -139 192 -384q0 -227 -164.5 -373.5t-421.5 -146.5q-29 0 -63.5 1.5t-93.5 17.5v-633q0 -98 93 -160h-402zM379 834q36 -10 79.5 -16.5t77.5 -6.5q184 0 284.5 114.5 t100.5 324.5q0 206 -113.5 326t-305.5 120h-42t-81 -7v-855z" />
<glyph unicode="Q" horiz-adv-x="1286" d="M86 865q0 394 161.5 640t418.5 246q252 0 413.5 -246t161.5 -636q0 -695 -457 -872q141 -269 422 -344q-73 -24 -111 -24q-70 0 -162 47q-208 99 -361 316q-83 17 -139.5 51t-122.5 107q-224 260 -224 715zM296 865q0 -401 94.5 -609.5t275.5 -208.5q179 0 272.5 208.5 t93.5 609.5q0 403 -93.5 610.5t-272.5 207.5q-181 0 -275.5 -207.5t-94.5 -610.5z" />
<glyph unicode="R" horiz-adv-x="1227" d="M70 27q105 72 105 167v1381q0 98 -105 167q258 29 427 29q244 0 392 -62q129 -55 203 -177t74 -277q0 -189 -120.5 -328.5t-314.5 -178.5q24 -100 69.5 -214.5t119.5 -262.5q58 -105 69 -127q34 -57 74.5 -121.5t65.5 -97t80 -87.5q-217 108 -418 366t-267 513l-63 -7 l-71 7v-523q0 -98 107 -167h-427zM390 780l83 -8q478 0 478 466t-413 466q-41 0 -64.5 -2.5t-83.5 -11.5v-910z" />
<glyph unicode="S" horiz-adv-x="1177" d="M29 156l155 301q36 -177 155.5 -287t272.5 -110q156 0 266 98t110 235q0 112 -67 186l-45 43q-43 32 -139 85.5t-180 94.5l-153 74q-141 69 -222.5 174.5t-81.5 217.5q0 204 166.5 348.5t400.5 144.5q204 0 407 -134l-160 -306q0 139 -107.5 244t-246.5 105 q-125 0 -218 -91t-93 -213q0 -93 40.5 -143t99 -88.5t245.5 -131.5l170 -91q103 -53 170 -110q138 -122 138 -318q0 -216 -173 -365.5t-427 -149.5q-232 0 -483 187z" />
<glyph unicode="T" horiz-adv-x="1132" d="M10 1319l93 456q7 -27 12.5 -38.5t21.5 -34.5l25 -20q16 -12 34 -14t82 -2h611q50 0 70 7q54 18 82 100l93 -464q-73 128 -173 209.5t-186 81.5q-45 0 -98 -32v-1442q0 -100 94 -157h-398q100 64 100 159v1436q-45 34 -95 34q-52 0 -120.5 -32t-118.5 -82 q-40 -41 -129 -165z" />
<glyph unicode="U" horiz-adv-x="1257" d="M75 1651h408q-58 -44 -81 -81t-23 -86v-1056q0 -104 11.5 -161t39.5 -108q86 -144 276 -144q199 0 304 142q23 30 37 62.5t22 83.5t8 163v1132q0 89 -102 167h272q-98 -83 -98 -167v-1153q0 -35 -1 -77t-8 -86q-30 -160 -149.5 -246t-314.5 -86q-121 0 -223 34t-174 99 q-56 55 -81.5 137.5t-25.5 212.5v1054q0 88 -97 164z" />
<glyph unicode="V" horiz-adv-x="1227" d="M-29 1622h395q-42 -32 -57 -55.5t-15 -54.5q0 -32 9 -52l388 -1079l357 1225l6 54q0 52 -53 106h242q-56 -50 -83 -86t-40 -78l-480 -1645l-552 1503q-29 79 -117 162z" />
<glyph unicode="W" horiz-adv-x="1853" d="M-59 1766h411q-46 -38 -61 -62t-15 -57l7 -49l392 -1188l216 692l-137 411q-16 47 -39.5 78t-85.5 90h411q-44 -40 -59 -63t-15 -56l6 -49l370 -1105l330 1105l4 40q0 39 -15 61t-75 67h302q-116 -89 -142 -170l-467 -1554l-346 1041l-328 -1036l-538 1636q-19 56 -54 98 z" />
<glyph unicode="X" horiz-adv-x="1291" d="M-23 -25q105 65 166 163l463 761l-348 693q-25 51 -48.5 80t-86.5 88h410q-60 -52 -60 -98q0 -38 21 -70l226 -476l284 480q7 12 13 33t6 33q0 53 -75 98h322q-82 -56 -103 -70q-46 -40 -79 -98l-326 -546l408 -804q51 -93 142 -163h-408q56 47 56 91q0 26 -21 72 l-291 588l-421 -694q-14 -26 -14 -58q0 -35 18.5 -56t71.5 -47h-326z" />
<glyph unicode="Y" horiz-adv-x="1162" d="M-29 1652h410q-66 -59 -66 -107q0 -33 12 -61l316 -809l347 910q7 12 8 28.5t3 27.5q0 54 -58 110h270q-70 -52 -96.5 -83t-47.5 -85l-388 -1022v-423q0 -93 100 -163h-410q100 63 100 163v423l-367 921q-21 58 -58 97z" />
<glyph unicode="Z" horiz-adv-x="1108" d="M33 -21l807 1672h-66l-126 -2q-77 0 -111 -8.5t-97 -37.5q-95 -46 -168.5 -131t-144.5 -233l124 606q14 -53 43 -87q25 -22 46.5 -27t104.5 -5h666l-812 -1684h85q281 0 417 68q80 39 139.5 91t156.5 173l-143 -485q-25 51 -63.5 70.5t-113.5 19.5h-744z" />
<glyph unicode="[" horiz-adv-x="496" d="M147 -193v1860h320v-57h-143v-1743h143v-60h-320z" />
<glyph unicode="\" horiz-adv-x="608" d="M96 1475h156l260 -1475h-158z" />
<glyph unicode="]" horiz-adv-x="494" d="M27 -133h143v1743h-143v57h319v-1860h-319v60z" />
<glyph unicode="^" horiz-adv-x="465" d="M12 1126l178 322h84l179 -322l-230 160z" />
<glyph unicode="_" horiz-adv-x="930" d="M96 0h738v-61h-738v61z" />
<glyph unicode="`" horiz-adv-x="510" d="M10 1444h248l139 -320z" />
<glyph unicode="a" horiz-adv-x="1075" d="M-20 0q81 61 110 143l465 1366l436 -1366q29 -82 107 -143h-367q72 45 72 102l-6 41l-88 287h-459l-103 -287q-8 -22 -8 -49q0 -55 56 -94h-215zM272 483h414l-201 641z" />
<glyph unicode="b" horiz-adv-x="1110" d="M70 0q90 55 90 141v1186q0 84 -90 143q45 5 163.5 14t227.5 9q172 0 266 -30.5t166 -108.5q80 -97 80 -213q0 -127 -78 -211t-213 -105q55 -10 82 -18t84 -35q188 -94 188 -330q0 -135 -71 -247q-138 -220 -461 -220q-37 7 -87 11t-147 4zM344 57q96 -18 170 -18 q340 0 340 393q0 186 -76 272.5t-239 86.5h-195v-734zM344 854l197 -2q250 0 250 285q0 180 -132 258q-57 35 -204 35l-111 -7v-569z" />
<glyph unicode="c" horiz-adv-x="1102" d="M86 645q0 377 183.5 615.5t471.5 238.5q70 0 129.5 -16.5t141.5 -59.5l-140 -266q0 119 -66.5 189.5t-172.5 70.5q-66 0 -144 -43q-135 -71 -204.5 -227t-69.5 -381q0 -295 101.5 -458t285.5 -163q137 0 266 88.5t203 233.5q-49 -227 -180 -361.5t-305 -134.5 q-178 0 -320 146q-180 188 -180 528z" />
<glyph unicode="d" horiz-adv-x="1155" d="M70 2q90 53 90 141v1186q0 84 -90 141q100 9 194 17t164 8q313 0 477 -186.5t164 -540.5q0 -121 -22.5 -245t-63.5 -222q-74 -172 -201 -249t-340 -77q-86 0 -114 2q-78 11 -135 15l-29 2zM344 57q90 -18 148 -18q184 0 274 127q39 57 61.5 121.5t38.5 167.5 q27 174 27 327q0 207 -31 334t-98 201q-115 121 -315 121q-48 0 -105 -11v-1370z" />
<glyph unicode="e" horiz-adv-x="1073" d="M70 0q43 29 64.5 61.5t21.5 81.5v1186q0 45 -18.5 77t-67.5 71h647h78q32 0 63 24q25 17 47 64l90 -420q-174 272 -477 272q-98 0 -138 -27.5t-40 -95.5v-463h336q90 0 131 29t65 111v-346q-10 55 -49 94q-24 29 -53 39t-84 10h-346v-608q0 -109 188 -109q316 0 494 285 l-125 -416q-14 23 -18 29q-13 18 -28 30.5t-37.5 16.5t-76.5 4h-667z" />
<glyph unicode="f" horiz-adv-x="991" d="M70 0q88 61 88 143v1186q0 45 -17.5 75t-70.5 73h669h39q19 0 35 4q53 14 80 96l98 -447q-26 46 -45.5 72.5t-42.5 50.5q-153 166 -385 166q-178 0 -178 -121v-497h360q154 0 177 147v-348q-27 80 -64 107.5t-113 27.5h-360v-594q0 -86 90 -141h-360z" />
<glyph unicode="g" horiz-adv-x="1198" d="M86 719q0 371 158.5 576.5t443.5 205.5q215 0 361 -90l-138 -264q-4 39 -10 69.5t-12 55.5q-51 170 -246 170q-115 0 -196.5 -67.5t-111.5 -165t-46.5 -227.5t-16.5 -273q0 -349 95.5 -513.5t298.5 -164.5q190 0 190 176v682q0 86 -88 141h360q-88 -59 -88 -141v-666 q0 -88 97 -129q-74 -55 -192 -90t-230 -35q-223 0 -396 140q-233 188 -233 610z" />
<glyph unicode="h" horiz-adv-x="1159" d="M70 0q45 31 61 57q8 15 16.5 40.5t8.5 43.5v1188q0 76 -86 148h356q-51 -39 -69.5 -71t-18.5 -77v-299h483v299q0 76 -86 148h357q-50 -43 -68 -73t-18 -75v-1188q0 -84 86 -141h-357q86 53 86 141v824h-483v-824q0 -88 88 -141h-356z" />
<glyph unicode="i" horiz-adv-x="500" d="M70 0q90 55 90 143v1186q0 51 -27 86q-12 17 -20 25q-15 14 -43 37h362q-51 -45 -69.5 -75t-18.5 -73v-1186q0 -47 19.5 -80.5t66.5 -62.5h-360z" />
<glyph unicode="j" horiz-adv-x="795" d="M-20 254q0 61 29.5 97t78.5 36q64 0 92 -55q8 -19 12.5 -49.5t4.5 -92.5q0 -81 28.5 -120t91.5 -39q138 0 138 168v1130q0 45 -17.5 75t-70.5 73h362q-53 -41 -72.5 -73t-19.5 -75v-1028q0 -113 -29.5 -175.5t-105.5 -105.5q-92 -51 -203 -51q-139 0 -229 80t-90 205z " />
<glyph unicode="k" horiz-adv-x="1090" d="M70 0q86 55 86 143v1186q0 72 -84 148h360q-55 -43 -74.5 -74t-19.5 -74v-557l465 557q37 41 37 66q0 45 -54 82h285l-43 -29q-88 -55 -145 -119l-400 -477l473 -709q58 -84 148 -143h-397q53 35 53 76q0 14 -5 27.5t-20 39.5l-397 602v-604q0 -88 92 -141h-360z" />
<glyph unicode="l" horiz-adv-x="911" d="M70 0q88 55 88 143v1186q0 45 -17.5 75t-70.5 73h360q-53 -43 -71.5 -73t-18.5 -75v-1167q0 -111 176 -111q260 0 410 283l-125 -410q-25 43 -55.5 59.5t-94.5 16.5h-581z" />
<glyph unicode="m" horiz-adv-x="1507" d="M8 0q92 61 101 143l139 1184l2 16q0 41 -14.5 66t-67.5 68h291l291 -1084l280 1084h279q-45 -37 -61.5 -64t-16.5 -63v-21l186 -1188q15 -88 109 -141h-363q39 27 53.5 53.5t14.5 65.5l-2 24l-180 1168l-357 -1360l-377 1366l-141 -1174l-2 -16q0 -74 80 -127h-244z" />
<glyph unicode="n" horiz-adv-x="1186" d="M74 0q86 55 86 141v1188q0 43 -16.5 72t-67.5 76h260l629 -1065v917q0 45 -18.5 76t-72.5 72h238q-49 -41 -65.5 -71t-16.5 -77v-1376l-805 1358v-1170q0 -88 90 -141h-241z" />
<glyph unicode="o" horiz-adv-x="1176" d="M86 737q0 340 141.5 555t362.5 215t360.5 -213t139.5 -557q0 -340 -139.5 -555t-360.5 -215t-362.5 215t-141.5 555zM268 737q0 -348 82 -529t240 -181q155 0 236 181t81 529q0 350 -81 530.5t-236 180.5q-158 0 -240 -180.5t-82 -530.5z" />
<glyph unicode="p" horiz-adv-x="1026" d="M70 0q90 55 90 143v1186q0 86 -90 141l86 9q39 0 129 6t129 6q147 0 246.5 -24.5t179.5 -80.5q172 -124 172 -344q0 -202 -147.5 -333t-377.5 -131q-26 0 -57 1t-84 15v-451q0 -88 84 -143h-360zM346 657q33 -8 72 -14t69 -6q164 0 254 102.5t90 290.5q0 184 -101 292 t-273 108h-38.5t-72.5 -7v-766z" />
<glyph unicode="q" horiz-adv-x="1176" d="M86 737q0 342 140.5 556t363.5 214q219 0 359.5 -214t140.5 -552q0 -604 -398 -757q123 -234 367 -299q-64 -21 -96 -21q-62 0 -142 41q-180 86 -313 275q-72 14 -121 43.5t-106 93.5q-195 225 -195 620zM268 737q0 -348 82 -529t240 -181q155 0 236 181t81 529 q0 350 -81 530.5t-236 180.5q-158 0 -240 -180.5t-82 -530.5z" />
<glyph unicode="r" horiz-adv-x="1059" d="M70 0q90 61 90 143v1184q0 84 -90 143q221 25 366 25q209 0 336 -53q111 -47 174.5 -151.5t63.5 -237.5q0 -162 -103.5 -282t-269.5 -153q20 -86 59 -184t103 -225q49 -90 59 -109q29 -49 63.5 -104t56 -83t69.5 -75q-187 92 -359 313.5t-229 440.5l-53 -6l-62 6v-449 q0 -84 92 -143h-366zM344 645l72 -6q409 0 409 399q0 400 -354 400q-35 0 -55.5 -2t-71.5 -11v-780z" />
<glyph unicode="s" horiz-adv-x="1032" d="M29 129l133 258q31 -151 133 -245.5t233 -94.5q134 0 228 84t94 201q0 96 -57 160l-39 36q-37 27 -119 73t-154 81l-131 63q-121 60 -190.5 150t-69.5 186q0 174 142.5 298t342.5 124q175 0 349 -114l-138 -263q0 119 -92 209t-211 90q-106 0 -186 -77.5t-80 -182.5 q0 -80 35 -123t85 -75.5t210 -112.5l145 -78q88 -45 146 -94q118 -104 118 -272q0 -185 -148.5 -313t-365.5 -128q-198 0 -413 160z" />
<glyph unicode="t" horiz-adv-x="1014" d="M0 1163l84 412q6 -25 11 -35t20 -31l22 -18q15 -10 31 -12t74 -2h551q45 0 63 6q49 16 74 90l84 -418q-66 115 -156 188.5t-168 73.5q-41 0 -88 -28v-1248q0 -90 84 -141h-358q90 57 90 143v1241q-41 31 -86 31q-47 0 -108.5 -28.5t-106.5 -73.5q-37 -37 -117 -150z" />
<glyph unicode="u" horiz-adv-x="1174" d="M70 1477h360q-51 -39 -71.5 -72t-20.5 -76v-932q0 -92 10 -142t35 -95q76 -127 244 -127q176 0 268 125q20 26 32.5 55t19.5 74t7 143v899q0 78 -90 148h240q-86 -74 -86 -148v-917q0 -31 -1 -68t-7 -76q-27 -141 -132.5 -217t-277.5 -76q-106 0 -196.5 30t-153.5 87 q-49 49 -71.5 122t-22.5 187v930q0 78 -86 146z" />
<glyph unicode="v" horiz-adv-x="1067" d="M-29 1477h361q-39 -29 -52.5 -50.5t-13.5 -50.5q0 -28 8 -47l355 -985l289 987l6 49q0 47 -50 97h222q-52 -45 -76.5 -78t-36.5 -72l-401 -1370l-504 1372q-27 72 -107 148z" />
<glyph unicode="w" horiz-adv-x="1630" d="M-29 1477h363q-41 -33 -54.5 -54.5t-13.5 -50.5l6 -43l320 -973l190 611l-120 362q-15 41 -35.5 68.5t-75.5 79.5h362q-39 -35 -52 -55.5t-13 -49.5l6 -43l326 -975l290 975l5 35q0 35 -13.5 54.5t-66.5 58.5h266q-102 -78 -125 -150l-412 -1370l-305 917l-289 -913 l-448 1368q-16 49 -47 86z" />
<glyph unicode="x" horiz-adv-x="1130" d="M6 0q92 57 146 143l346 578l-305 608q-23 45 -43.5 70.5t-75.5 77.5h360q-53 -45 -53 -86q0 -33 18 -62l199 -418l250 422q6 10 11 28.5t5 29.5q0 47 -65 86h282q-71 -50 -90 -62q-41 -35 -69 -86l-287 -479l358 -707q45 -82 125 -143h-358q49 41 49 80q0 22 -18 63 l-256 516l-310 -518q-12 -22 -12 -51q0 -31 16.5 -49t63.5 -41h-287z" />
<glyph unicode="y" horiz-adv-x="993" d="M-29 1477h361q-58 -52 -58 -95q0 -28 11 -53l278 -713l266 715q7 10 8 24.5t3 24.5q0 47 -52 97h238q-61 -45 -84.5 -73t-42.5 -75l-303 -813v-373q0 -82 88 -143h-360q88 55 88 143v373l-324 811q-18 51 -51 86z" />
<glyph unicode="z" horiz-adv-x="985" d="M33 0l682 1413h-56l-106 -2q-66 0 -94.5 -7t-81.5 -32q-80 -39 -142.5 -110.5t-121.5 -196.5l104 512q12 -45 37 -74q20 -18 38.5 -22t88.5 -4h563l-686 -1424h72q237 0 352 58q68 32 118 76t132 147l-121 -410q-20 43 -53 59.5t-96 16.5h-629z" />
<glyph unicode="{" horiz-adv-x="647" d="M96 737q56 0 92.5 41t36.5 107v676q0 145 166 145h160v-92h-25q-71 0 -94.5 -23.5t-23.5 -95.5v-594q0 -63 -41 -110.5t-105 -53.5q64 -6 105 -53t41 -111v-593q0 -72 23.5 -95.5t94.5 -23.5h25v-92h-160q-166 0 -166 145v676q0 63 -35.5 105t-93.5 42z" />
<glyph unicode="|" horiz-adv-x="348" d="M96 0v1475h156v-1475h-156z" />
<glyph unicode="}" horiz-adv-x="647" d="M96 -139h25q72 0 95.5 23.5t23.5 95.5v593q0 64 41 111t104 53q-63 6 -104 53.5t-41 110.5v594q0 72 -23.5 95.5t-95.5 23.5h-25v92h160q166 0 166 -145v-676q0 -64 36 -106t93 -42q-55 0 -92 -41t-37 -106v-676q0 -145 -166 -145h-160v92z" />
<glyph unicode="~" horiz-adv-x="655" d="M12 1524q23 108 68 154t129 46q57 0 129 -26l127 -43l33 -6q43 0 78.5 26.5t60.5 75.5l6 -41q0 -80 -43 -127t-117 -47q-82 0 -190 45q-84 37 -133 37q-41 0 -69 -17.5t-79 -76.5z" />
<glyph unicode="&#xa2;" horiz-adv-x="1139" />
<glyph unicode="&#xa3;" horiz-adv-x="1014" />
<glyph unicode="&#xa5;" horiz-adv-x="1262" />
<glyph unicode="&#xa8;" horiz-adv-x="1024" />
<glyph unicode="&#xa9;" horiz-adv-x="1674" />
<glyph unicode="&#xab;" horiz-adv-x="944" />
<glyph unicode="&#xad;" horiz-adv-x="528" d="M45 565v123h440v-123h-440z" />
<glyph unicode="&#xae;" horiz-adv-x="1674" />
<glyph unicode="&#xb4;" horiz-adv-x="498" d="M162 1126l143 324h248z" />
<glyph unicode="&#xb8;" horiz-adv-x="1024" />
<glyph unicode="&#xbb;" horiz-adv-x="944" />
<glyph unicode="&#x2c6;" horiz-adv-x="1024" />
<glyph unicode="&#x2da;" horiz-adv-x="1024" />
<glyph unicode="&#x2dc;" horiz-adv-x="1024" />
<glyph unicode="&#x400;" horiz-adv-x="1247" d="M70 -8q51 34 77 73t26 98v1420q0 54 -22.5 92t-80.5 84h774h93q40 0 76 30q30 19 57 76l108 -503q-209 326 -572 326q-117 0 -165 -33t-48 -114v-554h402q108 0 157 34.5t79 132.5v-415q-13 67 -59 113q-30 34 -64 46.5t-101 12.5h-414v-728q0 -130 226 -130 q377 0 591 341l-150 -498q-17 27 -22 34q-15 23 -33.5 37.5t-45 19.5t-90.5 5h-799zM382 1854h248l139 -320z" />
<glyph unicode="&#x401;" horiz-adv-x="1247" d="M70 -8q51 34 77 73t26 98v1420q0 54 -22.5 92t-80.5 84h774h93q40 0 76 30q30 19 57 76l108 -503q-209 326 -572 326q-117 0 -165 -33t-48 -114v-554h402q108 0 157 34.5t79 132.5v-415q-13 67 -59 113q-30 34 -64 46.5t-101 12.5h-414v-728q0 -130 226 -130 q377 0 591 341l-150 -498q-17 27 -22 34q-15 23 -33.5 37.5t-45 19.5t-90.5 5h-799z" />
<glyph unicode="&#x402;" horiz-adv-x="1674" d="M10 1319l93 456q7 -27 12.5 -38.5t21.5 -34.5l25 -20q16 -12 34 -14t82 -2h611q50 0 70 7q54 18 82 100l93 -464q-73 128 -173 209.5t-186 81.5q-45 0 -98 -32v-648q174 16 532 44l87 -6q154 -52 241.5 -168.5t87.5 -277.5q0 -224 -151 -382.5t-366 -158.5 q-164 0 -271 91t-107 228q0 86 44 136.5t114 50.5q56 0 94.5 -38t38.5 -92q0 -27 -10 -55t-19 -53q-19 -57 -19 -86q0 -52 39 -84.5t105 -32.5q134 0 228.5 108t94.5 262q0 170 -120 297q-108 112 -643 156v-733q0 -100 94 -157h-398q100 64 100 159v1436q-45 34 -95 34 q-52 0 -120.5 -32t-118.5 -82q-40 -41 -129 -165z" />
<glyph unicode="&#x403;" horiz-adv-x="1192" d="M70 -29q103 72 103 169v1394q0 53 -20.5 87.5t-82.5 85.5h787h46q21 0 41 5q62 17 94 113l115 -525q-31 53 -54 84.5t-49 60.5q-181 195 -453 195q-210 0 -210 -142v-1361q0 -101 106 -166h-423zM481 1536l143 324h248z" />
<glyph unicode="&#x404;" horiz-adv-x="1257" d="M90 746q0 450 219 735t564 285q83 0 154 -19.5t169 -70.5l-167 -318q0 141 -79.5 225.5t-206.5 84.5q-78 0 -171 -51q-162 -86 -245 -272q-55 -124 -74 -285h793v-99h-800q-2 -35 -2 -71q0 -352 121 -546.5t341 -194.5q164 0 318.5 105.5t242.5 278.5 q-59 -271 -215.5 -431.5t-364.5 -160.5q-213 0 -382 174q-215 225 -215 631z" />
<glyph unicode="&#x405;" horiz-adv-x="1177" d="M29 156l155 301q36 -177 155.5 -287t272.5 -110q156 0 266 98t110 235q0 112 -67 186l-45 43q-43 32 -139 85.5t-180 94.5l-153 74q-141 69 -222.5 174.5t-81.5 217.5q0 204 166.5 348.5t400.5 144.5q204 0 407 -134l-160 -306q0 139 -107.5 244t-246.5 105 q-125 0 -218 -91t-93 -213q0 -93 40.5 -143t99 -88.5t245.5 -131.5l170 -91q103 -53 170 -110q138 -122 138 -318q0 -216 -173 -365.5t-427 -149.5q-232 0 -483 187z" />
<glyph unicode="&#x406;" horiz-adv-x="571" d="M70 -20q108 67 108 173v1430q0 61 -32 103q-15 20 -25 30q-17 17 -51 45h437q-62 -55 -84 -90.5t-22 -87.5v-1430q0 -57 23 -97.5t80 -75.5h-434z" />
<glyph unicode="&#x407;" horiz-adv-x="571" d="M70 -20q108 67 108 173v1430q0 61 -32 103q-15 20 -25 30q-17 17 -51 45h437q-62 -55 -84 -90.5t-22 -87.5v-1430q0 -57 23 -97.5t80 -75.5h-434z" />
<glyph unicode="&#x408;" horiz-adv-x="849" d="M-20 282q0 68 32.5 107.5t86.5 39.5q70 0 101 -61q9 -20 13.5 -54t4.5 -102q0 -90 31.5 -132.5t101.5 -42.5q151 0 151 184v1377q0 50 -19 82.5t-78 80.5h399q-59 -45 -80.5 -80t-21.5 -83v-1264q0 -124 -32.5 -192.5t-115.5 -115.5q-102 -57 -223 -57q-153 0 -252 88 t-99 225z" />
<glyph unicode="&#x40c;" horiz-adv-x="1217" d="M70 120q95 61 95 159v1318q0 79 -93 164h400q-61 -48 -82.5 -82t-21.5 -82v-619l516 619q41 45 41 73q0 50 -59 91h316l-47 -32q-98 -62 -162 -132l-444 -530l630 -942q64 -93 164 -159h-442q59 39 59 84q0 16 -5.5 31t-21.5 44l-545 823v-671q0 -98 102 -157h-400z M566 1536l143 324h248z" />
<glyph unicode="&#x40d;" horiz-adv-x="1275" d="M59 -419q56 51 66 88q17 52 17 100v1804q0 114 -83 195v2h348v-1q-68 -71 -71 -97q-14 -29 -14 -90v-878l633 687v199q0 82 -83 171v1h348q3 0 3 -3q-82 -82 -82 -146q-2 0 -3 -56v-1389q0 -112 57 -164q0 -4 27 -28v-2h-350v3q83 63 83 162v1133l-633 -673v-839 q0 -118 86 -177v-3h-349v1zM383 1854h248l139 -320z" />
<glyph unicode="&#x40e;" horiz-adv-x="1367" d="M70 1712h416q-59 -32 -82.5 -60t-23.5 -64v-431q0 -77 11.5 -118.5t40.5 -80.5q88 -106 282 -106q185 0 290 88v601q0 59 -31 99q-14 20 -23 29q-18 16 -50 43h426q-61 -47 -83.5 -84t-22.5 -87v-1188q0 -131 -34 -203t-122 -122q-106 -59 -393 -59q-321 0 -425 92.5 t-104 236.5q0 71 34 112.5t90 41.5q74 0 107 -63q9 -22 14 -57.5t5 -107.5q0 -93 33 -138t267 -45q318 0 318 194v265h-6v367q-123 -63 -321 -63q-123 0 -227.5 25t-177.5 73q-57 40 -83 101.5t-26 157.5v428q0 66 -99 123z" />
<glyph unicode="&#x410;" horiz-adv-x="1354" d="M-11 -25q94 71 127 165l575 1705l501 -1571q33 -94 123 -165h-422q83 52 83 118l-7 47l-102 330h-527l-158 -464q-10 -26 -10 -57q0 -63 64 -108h-247zM331 665h476l-231 737z" />
<glyph unicode="&#x411;" horiz-adv-x="1088" d="M70 -18q100 62 100 158v1454q0 21 -5 40q-24 58 -91 100h24q-13 10 -28 20h402q-14 -10 -26 -20h327q76 0 113 19.5t67 71.5l150 -493q-180 340 -493 340q-211 0 -211 -133v-573q45 11 74 13q34 1 63 1q257 0 421.5 -146.5t164.5 -373.5q0 -245 -192 -384 q-89 -62 -200 -89q-93 -24 -224 -27l1 -1h-433q13 10 24 20zM399 136q0 -54 22 -90q5 -8 12 -17q17 -1 27 -1h42q192 0 305.5 120t113.5 326q0 210 -100.5 324.5t-284.5 114.5q-34 0 -77 -6q-32 -5 -60 -12v-759z" />
<glyph unicode="&#x412;" horiz-adv-x="1296" d="M65 -25q108 67 108 170v1426q0 101 -108 173q54 5 197 16t273 11q207 0 320.5 -37t199.5 -131q96 -115 96 -256q0 -153 -93.5 -254t-256.5 -125q67 -13 99 -22.5t101 -41.5q226 -114 226 -397q0 -162 -86 -298q-165 -264 -554 -264q-44 8 -104.5 13t-176.5 5zM395 44 q116 -22 204 -22q409 0 409 473q0 224 -91 327.5t-288 103.5h-234v-882zM395 1002l236 -2q301 0 301 342q0 217 -158 311q-69 42 -246 42l-133 -8v-685z" />
<glyph unicode="&#x413;" horiz-adv-x="1192" d="M70 -29q103 72 103 169v1394q0 53 -20.5 87.5t-82.5 85.5h787h46q21 0 41 5q62 17 94 113l115 -525q-31 53 -54 84.5t-49 60.5q-181 195 -453 195q-210 0 -210 -142v-1361q0 -101 106 -166h-423z" />
<glyph unicode="&#x414;" horiz-adv-x="1480" d="M115 -350l115 525q32 -96 94 -113q20 -5 41 -5h69q79 41 139 164v1377q0 29 -6 52q-7 21 -22 43q-21 29 -69 68h16q0 1 2 1h937q3 0 3 -3q-82 -82 -82 -146q-2 0 -3 -56v-1389q0 -55 14 -96q44 26 70 103l115 -525q-31 53 -54 84.5t-49 60.5q-129 139 -305 179h-57v3l8 6 q-48 7 -99 7q-308 0 -335 -1q-271 -13 -439 -194q-26 -29 -49 -60.5t-54 -84.5zM542 57h607q17 37 17 82v1451q0 9 -1 18v-26q0 21 -2 37q-6 35 -26 71h-465q-4 -5 -6 -9q-22 -35 -22 -83v-1264q0 -124 -32 -192q-23 -48 -70 -85z" />
<glyph unicode="&#x415;" horiz-adv-x="1247" d="M70 -8q51 34 77 73t26 98v1420q0 54 -22.5 92t-80.5 84h774h93q40 0 76 30q30 19 57 76l108 -503q-209 326 -572 326q-117 0 -165 -33t-48 -114v-554h402q108 0 157 34.5t79 132.5v-415q-13 67 -59 113q-30 34 -64 46.5t-101 12.5h-414v-728q0 -130 226 -130 q377 0 591 341l-150 -498q-17 27 -22 34q-15 23 -33.5 37.5t-45 19.5t-90.5 5h-799z" />
<glyph unicode="&#x416;" horiz-adv-x="2199" d="M70 -34q100 66 164 159l630 942l-444 530q-64 70 -162 132l-47 32h316q-59 -41 -59 -91q0 -28 41 -73l515 -618v604q0 61 -32 103q-15 20 -25 30q-17 17 -51 45h437q-62 -55 -84 -90.5t-22 -87.5v-582l497 596q41 45 41 73q0 50 -59 91h316l-47 -32q-98 -62 -162 -132 l-444 -530l630 -942q64 -93 164 -159h-442q59 39 59 84q0 16 -5.5 31t-21.5 44l-526 794v-766q0 -57 23 -97.5t80 -75.5h-434q108 67 108 173v793l-544 -821q-16 -29 -21.5 -44t-5.5 -31q0 -45 59 -84h-442z" />
<glyph unicode="&#x417;" horiz-adv-x="1063" d="M78 290q0 86 44 136.5t114 50.5q56 0 94.5 -38t38.5 -92q0 -27 -10 -55t-19 -53q-19 -57 -19 -86q0 -52 39 -84.5t105 -32.5q134 0 228.5 108t94.5 262q0 170 -120.5 296.5t-308.5 151.5v38q165 21 274.5 136t109.5 263q0 121 -73 199t-188 78q-199 0 -368 -236 q49 177 181 292.5t286 115.5q137 0 229.5 -104t92.5 -259q0 -260 -259 -419q154 -52 241.5 -168.5t87.5 -277.5q0 -224 -151 -382.5t-366 -158.5q-164 0 -271 91t-107 228z" />
<glyph unicode="&#x418;" horiz-adv-x="1275" d="M59 -419q56 51 66 88q17 52 17 100v1804q0 114 -83 195v2h348v-1q-68 -71 -71 -97q-14 -29 -14 -90v-878l633 687v199q0 82 -83 171v1h348q3 0 3 -3q-82 -82 -82 -146q-2 0 -3 -56v-1389q0 -112 57 -164q0 -4 27 -28v-2h-350v3q83 63 83 162v1133l-633 -673v-839 q0 -118 86 -177v-3h-349v1z" />
<glyph unicode="&#x419;" horiz-adv-x="1275" d="M59 -419q56 51 66 88q17 52 17 100v1804q0 114 -83 195v2h348v-1q-68 -71 -71 -97q-14 -29 -14 -90v-878l633 687v199q0 82 -83 171v1h348q3 0 3 -3q-82 -82 -82 -146q-2 0 -3 -56v-1389q0 -112 57 -164q0 -4 27 -28v-2h-350v3q83 63 83 162v1133l-633 -673v-839 q0 -118 86 -177v-3h-349v1zM524 1601v198h199v-198h-199z" />
<glyph unicode="&#x41a;" horiz-adv-x="1217" d="M70 120q95 61 95 159v1318q0 79 -93 164h400q-61 -48 -82.5 -82t-21.5 -82v-619l516 619q41 45 41 73q0 50 -59 91h316l-47 -32q-98 -62 -162 -132l-444 -530l630 -942q64 -93 164 -159h-442q59 39 59 84q0 16 -5.5 31t-21.5 44l-545 823v-671q0 -98 102 -157h-400z" />
<glyph unicode="&#x41b;" horiz-adv-x="1480" d="M-20 282q0 68 32.5 107.5t86.5 39.5q70 0 101 -61q9 -20 13.5 -54t4.5 -102q0 -90 31.5 -132.5t101.5 -42.5q133 0 222 184v1377q0 29 -6 52q-7 21 -22 43q-21 29 -69 68h16q0 1 2 1h937q3 0 3 -3q-82 -82 -82 -146q-2 0 -3 -56v-1389q0 -112 57 -164q0 -4 27 -28v-2 h-350v3q83 63 83 162v1451q0 9 -1 18v-26q0 21 -2 37q-6 35 -26 71h-465q-4 -5 -6 -9q-22 -35 -22 -83v-1264q0 -124 -32.5 -192.5t-115.5 -115.5q-84 -57 -165 -57q-153 0 -252 88t-99 225z" />
<glyph unicode="&#x41c;" horiz-adv-x="1823" d="M8 -24q111 74 121 172l167 1423l3 20q0 49 -17.5 78.5t-81.5 81.5h350l349 -1302l337 1302h335q-54 -45 -73.5 -77t-19.5 -76v-25l224 -1427q17 -106 130 -170h-436q47 32 64.5 64t17.5 79l-3 29l-216 1403l-429 -1634l-453 1642l-169 -1411l-3 -19q0 -89 96 -153h-293z " />
<glyph unicode="&#x41d;" horiz-adv-x="1127" d="M59 -419q56 51 66 88q17 52 17 100v1804q0 114 -83 195v2h348v-1q-68 -71 -71 -97q-14 -29 -14 -90v-503h477v511q0 82 -83 171v1h348q3 0 3 -3q-82 -82 -82 -146q-2 0 -3 -56v-1389q0 -112 57 -164q0 -4 27 -28v-2h-350v3q83 63 83 162v885h-477v-1264q0 -118 86 -177 v-3h-349v1z" />
<glyph unicode="&#x41e;" horiz-adv-x="1311" d="M86 867q0 397 165 648t424 251q258 0 420.5 -248.5t162.5 -650.5q0 -397 -162.5 -648.5t-420.5 -251.5q-259 0 -424 251.5t-165 648.5zM299 867q0 -407 95.5 -618.5t280.5 -211.5q181 0 275.5 211.5t94.5 618.5q0 409 -94.5 619.5t-275.5 210.5q-185 0 -280.5 -210.5 t-95.5 -619.5z" />
<glyph unicode="&#x41f;" horiz-adv-x="1127" d="M53 1759q0 3 3 3h348v-1l-14 -16h340l-14 16v1h348q3 0 3 -3q-82 -82 -82 -146q-2 0 -3 -56v-1389q0 -112 57 -164q0 -4 27 -28v-2h-350v3q83 63 83 162v1451q0 9 -1 18v-26q0 21 -2 37q-6 35 -26 71h-420q-20 -36 -26 -71q-2 -16 -2 -37v26q-1 -9 -1 -18v-1451 q0 -99 83 -162v-3h-350v2q27 24 27 28q57 52 57 164v1389q-1 56 -3 56q0 64 -82 146z" />
<glyph unicode="&#x420;" horiz-adv-x="1182" d="M70 -30q100 62 100 160v1454q0 96 -100 158l96 9q43 0 144 7t144 7q165 0 276 -27.5t200 -89.5q192 -139 192 -384q0 -227 -164.5 -373.5t-421.5 -146.5q-29 0 -63.5 1.5t-93.5 17.5v-633q0 -98 93 -160h-402zM379 834q36 -10 79.5 -16.5t77.5 -6.5q184 0 284.5 114.5 t100.5 324.5q0 206 -113.5 326t-305.5 120h-42t-81 -7v-855z" />
<glyph unicode="&#x421;" horiz-adv-x="1257" d="M90 746q0 450 219 735t564 285q83 0 154 -19.5t169 -70.5l-167 -318q0 141 -79.5 225.5t-206.5 84.5q-78 0 -171 -51q-162 -86 -245 -272t-83 -455q0 -352 121 -546.5t341 -194.5q164 0 318.5 105.5t242.5 278.5q-59 -271 -215.5 -431.5t-364.5 -160.5q-213 0 -382 174 q-215 225 -215 631z" />
<glyph unicode="&#x422;" horiz-adv-x="1132" d="M10 1319l93 456q7 -27 12.5 -38.5t21.5 -34.5l25 -20q16 -12 34 -14t82 -2h611q50 0 70 7q54 18 82 100l93 -464q-73 128 -173 209.5t-186 81.5q-45 0 -98 -32v-1442q0 -100 94 -157h-398q100 64 100 159v1436q-45 34 -95 34q-52 0 -120.5 -32t-118.5 -82 q-40 -41 -129 -165z" />
<glyph unicode="&#x423;" horiz-adv-x="1367" d="M70 1712h416q-59 -32 -82.5 -60t-23.5 -64v-431q0 -77 11.5 -118.5t40.5 -80.5q88 -106 282 -106q185 0 290 88v601q0 59 -31 99q-14 20 -23 29q-18 16 -50 43h426q-61 -47 -83.5 -84t-22.5 -87v-1188q0 -131 -34 -203t-122 -122q-106 -59 -393 -59q-321 0 -425 92.5 t-104 236.5q0 71 34 112.5t90 41.5q74 0 107 -63q9 -22 14 -57.5t5 -107.5q0 -93 33 -138t267 -45q318 0 318 194v265h-6v367q-123 -63 -321 -63q-123 0 -227.5 25t-177.5 73q-57 40 -83 101.5t-26 157.5v428q0 66 -99 123z" />
<glyph unicode="&#x424;" horiz-adv-x="1794" d="M70 1264q0 245 192 384q89 62 200 89.5t276 27.5q43 0 144 -7q17 -1 31 -2q15 1 32 2q101 7 144 7q165 0 276 -27.5t200 -89.5q192 -139 192 -384q0 -227 -164.5 -373.5t-421.5 -146.5q-29 0 -63 2q-33 1 -86 15v-631q0 -98 100 -160h-417q100 62 100 160v631 q-53 -14 -85 -15q-35 -2 -64 -2q-257 0 -421.5 146.5t-164.5 373.5zM271 1250q0 -210 100.5 -324.5t284.5 -114.5q34 0 78 7q38 5 71 14v752q0 62 -42 110q-20 2 -31 2h-42q-192 0 -305.5 -120t-113.5 -326zM1022 832q33 -9 72 -14q43 -7 77 -7q184 0 284.5 114.5 t100.5 324.5q0 206 -113.5 326t-305.5 120h-42q-11 0 -31 -2q-42 -48 -42 -110v-752z" />
<glyph unicode="&#x425;" horiz-adv-x="1291" d="M-23 -25q105 65 166 163l463 761l-348 693q-25 51 -48.5 80t-86.5 88h410q-60 -52 -60 -98q0 -38 21 -70l226 -476l284 480q7 12 13 33t6 33q0 53 -75 98h322q-82 -56 -103 -70q-46 -40 -79 -98l-326 -546l408 -804q51 -93 142 -163h-408q56 47 56 91q0 26 -21 72 l-291 588l-421 -694q-14 -26 -14 -58q0 -35 18.5 -56t71.5 -47h-326z" />
<glyph unicode="&#x426;" horiz-adv-x="1425" d="M53 -23q82 82 82 146q2 0 3 56v1389q0 112 -57 164q0 4 -27 28v2h350v-3q-83 -63 -83 -162v-1451q0 -9 1 -18v26q0 -21 2 -37q6 -35 26 -71h420q20 36 26 71q2 16 2 37v-26q1 9 1 18v1451q0 99 -83 162v3h350v-2q-27 -24 -27 -28q-57 -52 -57 -164v-1389q1 -56 3 -56 q0 -31 19 -66h111q21 0 41 5q62 17 94 113l115 -525q-31 53 -54 84.5t-49 60.5q-129 139 -305 179h-241v1l14 16h-340l14 -16v-1h-348q-3 0 -3 3z" />
<glyph unicode="&#x427;" horiz-adv-x="1353" d="M70 1712h417q-59 -32 -82.5 -60t-23.5 -64v-432q0 -78 11.5 -119.5t40.5 -80.5q88 -106 283 -106q186 0 291 87v603q0 60 -32 100q-14 20 -23 29q-17 16 -50 43h420q-59 -52 -80.5 -87t-21.5 -85v-1374q0 -55 22.5 -93.5t77.5 -72.5h-418q105 64 105 166l-1 699 q-122 -64 -322 -64q-123 0 -227.5 25.5t-177.5 72.5q-57 41 -83 102.5t-26 157.5v430q0 66 -100 123z" />
<glyph unicode="&#x428;" horiz-adv-x="1947" d="M53 -3q89 81 89 143q2 0 3 56v1366q0 111 -62 162q0 3 -29 27v2h380v-2q-90 -63 -90 -160v-1427q0 -9 1 -19v26q0 -21 3 -37q6 -34 28 -69h444q28 40 28 75q1 0 2 56v1366q0 111 -62 162q0 3 -29 27v2h394v-2q-29 -24 -29 -27q-62 -51 -62 -162v-1366q1 -56 4 -56 q0 -35 28 -75h299v11h151q16 30 22 58q2 16 2 37v-26q1 10 1 19v1427q0 97 -91 160v2h381v-2q-29 -24 -29 -27q-62 -51 -62 -162v-1366q1 -56 3 -56q0 -28 7.5 -59t130.5 -89l-321 2h-1531q-4 0 -4 3z" />
<glyph unicode="&#x429;" horiz-adv-x="1834" d="M53 -23q82 82 82 146q2 0 3 56v1389q0 112 -57 164q0 4 -27 28v2h350v-3q-83 -63 -83 -162v-1451q0 -9 1 -18v26q0 -21 2 -37q6 -35 26 -71h420q20 36 26 71q2 16 2 37v-26q1 9 1 18v1451q0 99 -83 162v3h350v-2q-27 -24 -27 -28q-57 -52 -57 -164v-1389q1 -56 3 -56 q0 -45 41 -100v23h329q20 36 26 71q2 16 2 37v-26q1 9 1 18v1451q0 99 -83 162v3h350v-2q-27 -24 -27 -28q-57 -52 -57 -164v-1389q1 -56 3 -56q0 -30 18 -65l20 4q62 17 94 113l115 -525q-31 53 -54 84.5t-49 60.5q-129 139 -305 179h-108v1l14 16h-262l14 -14q0 -3 -3 -3 h-348v1l14 16h-340l14 -16v-1h-348q-3 0 -3 3z" />
<glyph unicode="&#x42a;" horiz-adv-x="1182" d="M-42 1638v142h452v-15h62q-39 -26 -62 -59v-68h-28q-3 -16 -3 -33v-633q59 16 93.5 17.5t63.5 1.5q257 0 421.5 -146.5t164.5 -373.5q0 -245 -192 -384q-89 -62 -200 -89.5t-276 -27.5q-43 0 -144 7t-144 7l-96 9q100 62 100 158v1454q0 17 -3 33h-209zM379 46 q59 -7 81 -7h42q192 0 305.5 120t113.5 326q0 210 -100.5 324.5t-284.5 114.5q-34 0 -77.5 -6.5t-79.5 -16.5v-855z" />
<glyph unicode="&#x42b;" horiz-adv-x="1596" d="M70 -7q100 62 100 158v1454q0 98 -100 160h402q-93 -62 -93 -160v-633q59 16 93.5 17.5t63.5 1.5q257 0 421.5 -146.5t164.5 -373.5q0 -245 -192 -384q-89 -62 -200 -89.5t-276 -27.5q-43 0 -144 7t-144 7zM379 46q59 -7 81 -7h42q192 0 305.5 120t113.5 326 q0 210 -100.5 324.5t-284.5 114.5q-34 0 -77.5 -6.5t-79.5 -16.5v-855zM1098 -20q108 67 108 173v1430q0 61 -32 103q-15 20 -25 30q-17 17 -51 45h437q-62 -55 -84 -90.5t-22 -87.5v-1430q0 -57 23 -97.5t80 -75.5h-434z" />
<glyph unicode="&#x42c;" horiz-adv-x="1172" d="M70 -7q100 62 100 158v1454q0 98 -100 160h402q-93 -62 -93 -160v-633q59 16 93.5 17.5t63.5 1.5q257 0 421.5 -146.5t164.5 -373.5q0 -245 -192 -384q-89 -62 -200 -89.5t-276 -27.5q-43 0 -144 7t-144 7zM379 46q59 -7 81 -7h42q192 0 305.5 120t113.5 326 q0 210 -100.5 324.5t-284.5 114.5q-34 0 -77.5 -6.5t-79.5 -16.5v-855z" />
<glyph unicode="&#x42d;" horiz-adv-x="1257" d="M90 533q88 -173 242.5 -278.5t318.5 -105.5q220 0 341 194.5t121 546.5q0 36 -2 71h-800v99h793q-19 161 -74 285q-83 186 -245 272q-93 51 -171 51q-127 0 -206.5 -84.5t-79.5 -225.5l-167 318q98 51 169 70.5t154 19.5q345 0 564 -285t219 -735q0 -406 -215 -631 q-169 -174 -382 -174q-208 0 -364.5 160.5t-215.5 431.5z" />
<glyph unicode="&#x42e;" horiz-adv-x="1785" d="M59 -419q56 51 66 88q17 52 17 100v1804q0 114 -83 195v2h348v-1q-68 -71 -71 -97q-14 -29 -14 -90v-503h258q33 256 152 436q165 251 424 251q258 0 420.5 -248.5t162.5 -650.5q0 -397 -162.5 -648.5t-420.5 -251.5q-259 0 -424 251.5t-165 648.5q0 82 7 157h-252v-1264 q0 -118 86 -177v-3h-349v1zM780 867q0 -407 95.5 -618.5t280.5 -211.5q181 0 275.5 211.5t94.5 618.5q0 409 -94.5 619.5t-275.5 210.5q-185 0 -280 -210q-69 -153 -89 -408h12v-55h-15q-4 -74 -4 -157z" />
<glyph unicode="&#x42f;" horiz-adv-x="1227" d="M70 -162q55 55 80 87.5t65.5 97t74.5 121.5q11 22 69 127q74 148 119.5 262.5t69.5 214.5q-194 39 -314.5 178.5t-120.5 328.5q0 155 74 277t203 177q148 62 392 62q169 0 427 -29q-105 -69 -105 -167v-1381q0 -95 105 -167h-427q107 69 107 167v523l-71 -7l-63 7 q-66 -255 -267 -513t-418 -366zM328 1238q0 -466 478 -466l83 8v910q-60 9 -83.5 11.5t-64.5 2.5q-413 0 -413 -466z" />
<glyph unicode="&#x430;" horiz-adv-x="1075" d="M-20 0q81 61 110 143l465 1366l436 -1366q29 -82 107 -143h-367q72 45 72 102l-6 41l-88 287h-459l-103 -287q-8 -22 -8 -49q0 -55 56 -94h-215zM272 483h414l-201 641z" />
<glyph unicode="&#x431;" horiz-adv-x="1292" d="M70 -22q106 51 106 130v1197q0 17 -4 33q-27 47 -98 82h26q-14 9 -30 17h428q-15 -8 -28 -17h348q81 0 120.5 16t71.5 59l160 -406q-192 280 -525 280q-225 0 -225 -109v-472q48 9 78 10q37 1 68 1q274 0 449 -120.5t175 -307.5q0 -201 -204 -316q-95 -51 -213 -73 q-99 -19 -239 -22l1 -1h-461q14 9 26 17zM420 105q0 -45 24 -74q5 -7 12 -14q19 -1 29 -1h45q204 0 325 98.5t121 268.5q0 173 -107 267t-303 94q-36 0 -82 -5q-34 -4 -64 -9v-625z" />
<glyph unicode="&#x432;" horiz-adv-x="1110" d="M70 0q90 55 90 141v1186q0 84 -90 143q45 5 163.5 14t227.5 9q172 0 266 -30.5t166 -108.5q80 -97 80 -213q0 -127 -78 -211t-213 -105q55 -10 82 -18t84 -35q188 -94 188 -330q0 -135 -71 -247q-138 -220 -461 -220q-37 7 -87 11t-147 4zM344 57q96 -18 170 -18 q340 0 340 393q0 186 -76 272.5t-239 86.5h-195v-734zM344 854l197 -2q250 0 250 285q0 180 -132 258q-57 35 -204 35l-111 -7v-569z" />
<glyph unicode="&#x433;" horiz-adv-x="991" d="M70 0q88 61 88 143v1186q0 45 -17.5 75t-70.5 73h669h39q19 0 35 4q53 14 80 96l98 -447q-26 46 -45.5 72.5t-42.5 50.5q-153 166 -385 166q-178 0 -178 -121v-1157q0 -86 90 -141h-360z" />
<glyph unicode="&#x434;" horiz-adv-x="1382" d="M115 -268l98 428q27 -78 80 -92q17 -4 35 -4h59q68 33 119 133v1122q0 24 -5 43q-6 17 -19 35q-18 23 -59 55h14q0 1 2 1h799q3 0 3 -2q-70 -67 -70 -119q-2 0 -3 -46v-1132q0 -45 12 -78q38 21 60 84l98 -428q-26 43 -45.5 69t-42.5 49q-110 113 -260 146h-49v2q4 3 7 5 q-41 6 -84 6q-263 0 -286 -1q-232 -10 -375 -158q-22 -23 -42 -49t-46 -69zM480 64h518q14 30 14 66v1183q0 7 -1 15v-22q0 17 -1 30q-5 29 -23 58h-396q-4 -4 -6 -7q-18 -29 -18 -68v-1030q0 -101 -28 -156q-19 -39 -59 -69z" />
<glyph unicode="&#x435;" horiz-adv-x="1073" d="M70 0q43 29 64.5 61.5t21.5 81.5v1186q0 45 -18.5 77t-67.5 71h647h78q32 0 63 24q25 17 47 64l90 -420q-174 272 -477 272q-98 0 -138 -27.5t-40 -95.5v-463h336q90 0 131 29t65 111v-346q-10 55 -49 94q-24 29 -53 39t-84 10h-346v-608q0 -109 188 -109q316 0 494 285 l-125 -416q-14 23 -18 29q-13 18 -28 30.5t-37.5 16.5t-76.5 4h-667z" />
<glyph unicode="&#x436;" horiz-adv-x="1847" d="M70 -34q82 54 134 130l517 773l-364 435q-52 57 -133 108l-38 26h259q-49 -34 -49 -75q0 -23 34 -59l422 -507v495q0 50 -26 84q-12 17 -20 25q-14 14 -42 37h358q-51 -45 -69 -74t-18 -72v-477l408 489q33 36 33 59q0 41 -48 75h259l-38 -26q-81 -51 -133 -108 l-364 -435l516 -773q53 -76 135 -130h-363q49 32 49 69q0 13 -4.5 25.5t-17.5 35.5l-432 652v-629q0 -46 19 -79.5t66 -62.5h-356q88 55 88 142v651l-446 -674q-13 -23 -17.5 -35.5t-4.5 -25.5q0 -37 48 -69h-362z" />
<glyph unicode="&#x437;" d="M78 248q0 74 38 118t99 44q49 0 82 -33t33 -80q0 -23 -8.5 -47.5t-16.5 -46.5q-16 -49 -16 -74q0 -45 33.5 -73.5t91.5 -28.5q116 0 198 94t82 227q0 148 -104.5 257.5t-267.5 131.5v33q143 18 238 117.5t95 228.5q0 105 -63.5 172.5t-163.5 67.5q-172 0 -319 -205 q43 154 157.5 254t247.5 100q119 0 199 -90t80 -225q0 -225 -224 -363q133 -45 209 -146t76 -241q0 -194 -131 -331.5t-317 -137.5q-142 0 -235 79t-93 198z" />
<glyph unicode="&#x438;" horiz-adv-x="1159" d="M70 0q45 31 61 57q8 15 16.5 40.5t8.5 43.5v1188q0 76 -86 148h356q-51 -39 -69.5 -71t-18.5 -77v-838l483 567v271q0 76 -86 148h357q-50 -43 -68 -73t-18 -75v-1188q0 -84 86 -141h-357q86 53 86 141v851l-483 -555v-296q0 -88 88 -141h-356z" />
<glyph unicode="&#x439;" horiz-adv-x="1159" d="M70 0q45 31 61 57q8 15 16.5 40.5t8.5 43.5v1188q0 76 -86 148h356q-51 -39 -69.5 -71t-18.5 -77v-838l483 567v271q0 76 -86 148h357q-50 -43 -68 -73t-18 -75v-1188q0 -84 86 -141h-357q86 53 86 141v851l-483 -555v-296q0 -88 88 -141h-356zM318 1602v124h566v-124 h-566z" />
<glyph unicode="&#x43a;" horiz-adv-x="1090" d="M70 0q86 55 86 143v1186q0 72 -84 148h360q-55 -43 -74.5 -74t-19.5 -74v-557l465 557q37 41 37 66q0 45 -54 82h285l-43 -29q-88 -55 -145 -119l-400 -477l473 -709q58 -84 148 -143h-397q53 35 53 76q0 14 -5 27.5t-20 39.5l-397 602v-604q0 -88 92 -141h-360z" />
<glyph unicode="&#x43b;" horiz-adv-x="1284" d="M-20 228q0 56 27 89t71 33q58 0 84 -51q8 -16 11.5 -44.5t3.5 -84.5q0 -74 26 -109.5t84 -35.5q110 0 184 153v1139q0 24 -6 44q-5 17 -17 35q-18 24 -57 56h12q1 1 2 1h776q2 0 2 -2q-67 -68 -67 -121q-2 0 -3 -47v-1149q0 -93 47 -136q0 -3 23 -23v-2h-290v3 q69 52 69 134v1201q0 7 -1 15v-22q0 17 -2 31q-5 29 -21 58h-386q-2 -3 -5 -7q-17 -29 -17 -69v-1046q0 -103 -27 -159.5t-96 -95.5q-69 -47 -136 -47q-127 0 -209 73t-82 186z" />
<glyph unicode="&#x43c;" horiz-adv-x="1507" d="M8 0q92 61 101 143l139 1184l2 16q0 41 -14.5 66t-67.5 68h291l291 -1084l280 1084h279q-45 -37 -61.5 -64t-16.5 -63v-21l186 -1188q15 -88 109 -141h-363q39 27 53.5 53.5t14.5 65.5l-2 24l-180 1168l-357 -1360l-377 1366l-141 -1174l-2 -16q0 -74 80 -127h-244z" />
<glyph unicode="&#x43d;" horiz-adv-x="1159" d="M70 0q45 31 61 57q8 15 16.5 40.5t8.5 43.5v1188q0 76 -86 148h356q-51 -39 -69.5 -71t-18.5 -77v-299h483v299q0 76 -86 148h357q-50 -43 -68 -73t-18 -75v-1188q0 -84 86 -141h-357q86 53 86 141v824h-483v-824q0 -88 88 -141h-356z" />
<glyph unicode="&#x43e;" horiz-adv-x="1176" d="M86 737q0 340 141.5 555t362.5 215t360.5 -213t139.5 -557q0 -340 -139.5 -555t-360.5 -215t-362.5 215t-141.5 555zM268 737q0 -348 82 -529t240 -181q155 0 236 181t81 529q0 350 -81 530.5t-236 180.5q-158 0 -240 -180.5t-82 -530.5z" />
<glyph unicode="&#x43f;" horiz-adv-x="931" d="M53 1437q0 2 2 2h286v-1q-6 -6 -12 -13h279q-6 7 -12 13v1h285q3 0 3 -2q-67 -68 -67 -120q-2 0 -3 -46v-1138q0 -92 47 -134q0 -4 22 -23v-2h-287v2q68 52 68 133v1189q0 8 -1 15v-21q0 16 -1 30q-5 29 -22 58h-344q-16 -29 -21 -58q-2 -14 -2 -30v21v-15v-1189 q0 -81 68 -133v-2h-287v2q22 19 22 23q47 42 47 134v1138q-1 46 -3 46q0 52 -67 120z" />
<glyph unicode="&#x440;" horiz-adv-x="1026" d="M70 0q90 55 90 143v1186q0 86 -90 141l86 9q39 0 129 6t129 6q147 0 246.5 -24.5t179.5 -80.5q172 -124 172 -344q0 -202 -147.5 -333t-377.5 -131q-26 0 -57 1t-84 15v-451q0 -88 84 -143h-360zM346 657q33 -8 72 -14t69 -6q164 0 254 102.5t90 290.5q0 184 -101 292 t-273 108h-38.5t-72.5 -7v-766z" />
<glyph unicode="&#x441;" horiz-adv-x="1102" d="M86 645q0 377 183.5 615.5t471.5 238.5q70 0 129.5 -16.5t141.5 -59.5l-140 -266q0 119 -66.5 189.5t-172.5 70.5q-66 0 -144 -43q-135 -71 -204.5 -227t-69.5 -381q0 -295 101.5 -458t285.5 -163q137 0 266 88.5t203 233.5q-49 -227 -180 -361.5t-305 -134.5 q-178 0 -320 146q-180 188 -180 528z" />
<glyph unicode="&#x442;" horiz-adv-x="1014" d="M0 1163l84 412q6 -25 11 -35t20 -31l22 -18q15 -10 31 -12t74 -2h551q45 0 63 6q49 16 74 90l84 -418q-66 115 -156 188.5t-168 73.5q-41 0 -88 -28v-1248q0 -90 84 -141h-358q90 57 90 143v1241q-41 31 -86 31q-47 0 -108.5 -28.5t-106.5 -73.5q-37 -37 -117 -150z" />
<glyph unicode="&#x443;" horiz-adv-x="1174" d="M70 1477h360q-51 -28 -71.5 -52t-20.5 -55v-373q0 -67 10 -103t35 -69q76 -92 244 -92q160 0 251 76v520q0 51 -27 86q-12 17 -20 25q-15 14 -43 37h369q-53 -41 -72.5 -73t-19.5 -75v-1028q0 -113 -29.5 -175.5t-105.5 -105.5q-92 -51 -340 -51q-278 0 -368 80t-90 205 q0 61 29.5 97t78.5 36q64 0 92 -55q8 -19 12.5 -49.5t4.5 -92.5q0 -81 28.5 -120t230.5 -39q275 0 275 168v229h-5v318q-106 -55 -278 -55q-106 0 -196.5 22t-153.5 63q-49 35 -71.5 88t-22.5 136v371q0 57 -86 106z" />
<glyph unicode="&#x444;" horiz-adv-x="1540" d="M70 1030q0 201 157 315q73 51 164 73.5t226 22.5q36 0 118 -6q14 -1 26 -1q13 0 26 1q83 6 118 6q135 0 226 -22.5t164 -73.5q157 -114 157 -315q0 -186 -134.5 -306t-345.5 -120q-23 0 -52 2q-26 1 -70 12v-517q0 -80 82 -131h-342q82 51 82 131v517q-43 -11 -70 -12 q-28 -2 -52 -2q-210 0 -345 120t-135 306zM235 1019q0 -172 82 -266t233 -94q28 0 64 6q31 4 58 11v617q0 51 -34 90q-17 1 -25 1h-35q-157 0 -250 -98t-93 -267zM850 676q27 -7 59 -11q35 -6 63 -6q151 0 233.5 94t82.5 266q0 169 -93 267t-251 98h-34q-9 0 -25 -1 q-35 -39 -35 -90v-617z" />
<glyph unicode="&#x445;" horiz-adv-x="1130" d="M6 0q92 57 146 143l346 578l-305 608q-23 45 -43.5 70.5t-75.5 77.5h360q-53 -45 -53 -86q0 -33 18 -62l199 -418l250 422q6 10 11 28.5t5 29.5q0 47 -65 86h282q-71 -50 -90 -62q-41 -35 -69 -86l-287 -479l358 -707q45 -82 125 -143h-358q49 41 49 80q0 22 -18 63 l-256 516l-310 -518q-12 -22 -12 -51q0 -31 16.5 -49t63.5 -41h-287z" />
<glyph unicode="&#x446;" horiz-adv-x="1269" d="M53 -10q68 68 68 121q2 0 3 46v1154q0 93 -48 136q0 4 -22 24v1h291v-2q-69 -53 -69 -135v-1198q0 -18 2 -31q5 -29 22 -59h349q16 30 21 59q2 13 2 31v-22q1 8 1 15v1205q0 82 -69 135v2h290v-1q-22 -20 -22 -24q-47 -43 -47 -136v-1154q0 -46 2 -46q0 -26 16 -55h92 q18 0 34 4q52 14 78 94l96 -436q-26 44 -45 70t-41 50q-107 116 -253 149h-200v1q6 7 11 13h-282q6 -6 12 -13v-1h-290q-2 0 -2 3z" />
<glyph unicode="&#x447;" horiz-adv-x="1174" d="M70 1477h360q-51 -28 -71.5 -52t-20.5 -55v-373q0 -67 10 -103t35 -69q76 -92 244 -92q160 0 251 76v520q0 51 -27 86q-12 17 -20 25q-15 14 -43 37h362q-51 -45 -69.5 -75t-18.5 -73v-1186q0 -47 19.5 -80.5t66.5 -62.5h-360q90 55 90 143v603q-106 -55 -278 -55 q-106 0 -196.5 22t-153.5 63q-49 35 -71.5 88t-22.5 136v371q0 57 -86 106z" />
<glyph unicode="&#x448;" horiz-adv-x="1622" d="M53 -4q73 67 73 118q2 0 3 46v1122q0 91 -51 133q0 3 -24 22v2h312v-2q-74 -51 -74 -131v-1173q0 -7 1 -15v21q0 -17 2 -30q5 -28 23 -57h365q23 33 23 62q1 0 2 46v1122q0 91 -51 133q0 3 -24 22v2h324v-2q-24 -19 -24 -22q-51 -42 -51 -133v-1122q1 -46 3 -46 q0 -29 23 -62h246v9h124q13 24 18 48q2 13 2 30v-21q1 8 1 15v1173q0 80 -75 131v2h313v-2q-24 -19 -24 -22q-51 -42 -51 -133v-1122q1 -46 3 -46q0 -24 6 -49t107 -73l-264 2h-1258q-3 0 -3 2z" />
<glyph unicode="&#x449;" horiz-adv-x="1735" d="M53 -4q73 67 73 118q2 0 3 46v1122q0 91 -51 133q0 3 -24 22v2h312v-2q-74 -51 -74 -131v-1173q0 -7 1 -15v21q0 -17 2 -30q5 -28 23 -57h365q23 33 23 62q1 0 2 46v1122q0 91 -51 133q0 3 -24 22v2h324v-2q-24 -19 -24 -22q-51 -42 -51 -133v-1122q1 -46 3 -46 q0 -29 23 -62h246v9h124q13 24 18 48q2 13 2 30v-21q1 8 1 15v1173q0 80 -75 131v2h313v-2q-24 -19 -24 -22q-51 -42 -51 -133v-1122q1 -46 3 -46q0 -24 16 -51l10 2q56 14 84 91l103 -424q-28 43 -48.5 68.5t-43.5 48.5q-116 113 -272 145h-90v1q6 5 10 10q-25 2 -52 2 q-15 0 -28 -1v2h-208l12 -12q0 -2 -2 -2h-321q-3 0 -3 2q7 6 13 12h-291q6 -7 12 -13v-1h-310q-3 0 -3 2z" />
<glyph unicode="&#x44a;" horiz-adv-x="960" d="M-42 1338v117h371v-12h51q-33 -22 -51 -49v-56h-23q-3 -13 -3 -27v-519q49 13 77 14.5t52 1.5q211 0 346 -120.5t135 -306.5q0 -201 -158 -315q-73 -51 -164 -73.5t-226 -22.5q-35 0 -118 5.5t-118 5.5l-79 8q82 51 82 130v1192q0 14 -3 27h-171zM303 32q49 -5 67 -5h34 q158 0 251 98.5t93 267.5q0 172 -82.5 266t-233.5 94q-28 0 -63.5 -5.5t-65.5 -13.5v-702z" />
<glyph unicode="&#x44b;" horiz-adv-x="1370" d="M70 -10q85 52 85 134v1237q0 83 -85 136h342q-79 -53 -79 -136v-539q50 14 79.5 15.5t53.5 1.5q219 0 359 -125t140 -318q0 -208 -163 -326q-76 -53 -170.5 -76.5t-234.5 -23.5q-37 0 -123 6t-122 6zM333 35q50 -6 68.5 -6h36.5q163 0 259.5 102t96.5 277 q0 179 -85.5 276.5t-242.5 97.5q-28 0 -65.5 -5.5t-67.5 -14.5v-727zM945 -21q91 57 91 147v1216q0 52 -27 88q-13 17 -21 25q-15 15 -43 39h371q-52 -47 -71 -77.5t-19 -74.5v-1216q0 -49 19.5 -83.5t68.5 -63.5h-369z" />
<glyph unicode="&#x44c;" horiz-adv-x="1017" d="M70 -11q83 51 83 131v1203q0 81 -83 132h333q-77 -51 -77 -132v-524q48 13 77 14.5t53 1.5q212 0 348 -121.5t136 -309.5q0 -202 -159 -317q-73 -51 -165 -74t-228 -23q-36 0 -119.5 6t-119.5 6zM326 33q48 -6 66.5 -6h34.5q159 0 253 99.5t94 269.5q0 174 -83 268.5 t-235 94.5q-29 0 -65 -5.5t-65 -13.5v-707z" />
<glyph unicode="&#x44d;" horiz-adv-x="1159" d="M90 437q74 -145 203.5 -233.5t266.5 -88.5q184 0 285.5 163t101.5 458q0 30 -1 60h-671v83h664q-15 134 -61 238q-70 156 -206 228q-78 43 -143 43q-106 0 -173 -71t-67 -189l-140 267q83 42 142.5 58.5t128.5 16.5q289 0 472.5 -239t183.5 -616q0 -340 -180 -528 q-142 -146 -320 -146q-174 0 -305.5 134.5t-180.5 361.5z" />
<glyph unicode="&#x44e;" horiz-adv-x="1615" d="M59 -419q47 43 56 74q14 44 14 85v1524q0 97 -70 165v2h294v-1q-57 -60 -60 -82q-12 -24 -12 -76v-425h218q29 216 129 368q139 213 358 213q218 0 355.5 -210t137.5 -550q0 -336 -137.5 -548.5t-355.5 -212.5q-219 0 -358.5 212.5t-139.5 548.5q0 69 6 132h-213v-1068 q0 -100 73 -149v-3h-295v1zM668 668q0 -344 81 -523t237 -179q153 0 233 179t80 523q0 345 -80 523t-233 178q-156 0 -237 -178q-58 -128 -74 -344h9v-47h-12q-4 -62 -4 -132z" />
<glyph unicode="&#x44f;" horiz-adv-x="1059" d="M50 -162q48 47 69.5 75t56 83t63.5 104q10 19 59 109q64 127 103 225t59 184q-166 33 -269.5 153t-103.5 282q0 133 63.5 237.5t174.5 151.5q127 53 336 53q145 0 366 -25q-90 -59 -90 -143v-1184q0 -82 90 -143h-366q92 59 92 143v449l-62 -6l-53 6 q-57 -219 -229 -440.5t-359 -313.5zM272 1038q0 -399 409 -399l72 6v780q-51 9 -71.5 11t-55.5 2q-354 0 -354 -400z" />
<glyph unicode="&#x450;" horiz-adv-x="1073" d="M70 0q43 29 64.5 61.5t21.5 81.5v1186q0 45 -18.5 77t-67.5 71h647h78q32 0 63 24q25 17 47 64l90 -420q-174 272 -477 272q-98 0 -138 -27.5t-40 -95.5v-463h336q90 0 131 29t65 111v-346q-10 55 -49 94q-24 29 -53 39t-84 10h-346v-608q0 -109 188 -109q316 0 494 285 l-125 -416q-14 23 -18 29q-13 18 -28 30.5t-37.5 16.5t-76.5 4h-667zM288 1444h248l139 -320z" />
<glyph unicode="&#x451;" horiz-adv-x="1073" d="M70 0q43 29 64.5 61.5t21.5 81.5v1186q0 45 -18.5 77t-67.5 71h647h78q32 0 63 24q25 17 47 64l90 -420q-174 272 -477 272q-98 0 -138 -27.5t-40 -95.5v-463h336q90 0 131 29t65 111v-346q-10 55 -49 94q-24 29 -53 39t-84 10h-346v-608q0 -109 188 -109q316 0 494 285 l-125 -416q-14 23 -18 29q-13 18 -28 30.5t-37.5 16.5t-76.5 4h-667z" />
<glyph unicode="&#x453;" horiz-adv-x="991" d="M70 0q88 61 88 143v1186q0 45 -17.5 75t-70.5 73h669h39q19 0 35 4q53 14 80 96l98 -447q-26 46 -45.5 72.5t-42.5 50.5q-153 166 -385 166q-178 0 -178 -121v-1157q0 -86 90 -141h-360zM400 1126l143 324h248z" />
<glyph unicode="&#x454;" horiz-adv-x="1159" d="M90 615q0 377 183.5 616t472.5 239q70 0 129.5 -16.5t141.5 -58.5l-140 -267q0 118 -67 189t-173 71q-65 0 -143 -43q-136 -72 -205 -228q-47 -104 -62 -238h664v-83h-671q-1 -30 -1 -60q0 -295 101.5 -458t285.5 -163q137 0 266.5 88.5t203.5 233.5 q-49 -227 -180.5 -361.5t-305.5 -134.5q-178 0 -320 146q-180 188 -180 528z" />
<glyph unicode="&#x455;" horiz-adv-x="1032" d="M29 129l133 258q31 -151 133 -245.5t233 -94.5q134 0 228 84t94 201q0 96 -57 160l-39 36q-37 27 -119 73t-154 81l-131 63q-121 60 -190.5 150t-69.5 186q0 174 142.5 298t342.5 124q175 0 349 -114l-138 -263q0 119 -92 209t-211 90q-106 0 -186 -77.5t-80 -182.5 q0 -80 35 -123t85 -75.5t210 -112.5l145 -78q88 -45 146 -94q118 -104 118 -272q0 -185 -148.5 -313t-365.5 -128q-198 0 -413 160z" />
<glyph unicode="&#x456;" horiz-adv-x="500" d="M70 0q90 55 90 143v1186q0 51 -27 86q-12 17 -20 25q-15 14 -43 37h362q-51 -45 -69.5 -75t-18.5 -73v-1186q0 -47 19.5 -80.5t66.5 -62.5h-360z" />
<glyph unicode="&#x457;" horiz-adv-x="571" d="M70 -20q108 67 108 173v1430q0 61 -32 103q-15 20 -25 30q-17 17 -51 45h437q-62 -55 -84 -90.5t-22 -87.5v-1430q0 -57 23 -97.5t80 -75.5h-434z" />
<glyph unicode="&#x458;" horiz-adv-x="795" d="M-20 254q0 61 29.5 97t78.5 36q64 0 92 -55q8 -19 12.5 -49.5t4.5 -92.5q0 -81 28.5 -120t91.5 -39q138 0 138 168v1130q0 45 -17.5 75t-70.5 73h362q-53 -41 -72.5 -73t-19.5 -75v-1028q0 -113 -29.5 -175.5t-105.5 -105.5q-92 -51 -203 -51q-139 0 -229 80t-90 205z " />
<glyph unicode="&#x45b;" horiz-adv-x="1174" d="M69 1132v97h89v105q0 47 -19.5 80.5t-66.5 62.5h360q-90 -55 -90 -143v-105h528v-97h-528l1 -401q105 55 277 55q106 0 196.5 -22t153.5 -63q49 -35 71.5 -88t22.5 -136v-371q0 -57 86 -106h-360q51 28 71.5 52t20.5 55v373q0 67 -10 103t-35 69q-76 92 -244 92 q-160 0 -251 -76v-520q0 -51 27 -86q12 -17 20 -25q15 -14 43 -37h-362q51 45 69.5 75t18.5 73v984h-89z" />
<glyph unicode="&#x45c;" horiz-adv-x="1090" d="M70 0q86 55 86 143v1186q0 72 -84 148h360q-55 -43 -74.5 -74t-19.5 -74v-557l465 557q37 41 37 66q0 45 -54 82h285l-43 -29q-88 -55 -145 -119l-400 -477l473 -709q58 -84 148 -143h-397q53 35 53 76q0 14 -5 27.5t-20 39.5l-397 602v-604q0 -88 92 -141h-360z M457 1126l143 324h248z" />
<glyph unicode="&#x45d;" horiz-adv-x="1159" d="M70 0q45 31 61 57q8 15 16.5 40.5t8.5 43.5v1188q0 76 -86 148h356q-51 -39 -69.5 -71t-18.5 -77v-838l483 567v271q0 76 -86 148h357q-50 -43 -68 -73t-18 -75v-1188q0 -84 86 -141h-357q86 53 86 141v851l-483 -555v-296q0 -88 88 -141h-356zM323 1444h248l139 -320z " />
<glyph unicode="&#x45e;" horiz-adv-x="1174" d="M70 1477h360q-51 -28 -71.5 -52t-20.5 -55v-373q0 -67 10 -103t35 -69q76 -92 244 -92q160 0 251 76v520q0 51 -27 86q-12 17 -20 25q-15 14 -43 37h369q-53 -41 -72.5 -73t-19.5 -75v-1028q0 -113 -29.5 -175.5t-105.5 -105.5q-92 -51 -340 -51q-278 0 -368 80t-90 205 q0 61 29.5 97t78.5 36q64 0 92 -55q8 -19 12.5 -49.5t4.5 -92.5q0 -81 28.5 -120t230.5 -39q275 0 275 168v229h-5v318q-106 -55 -278 -55q-106 0 -196.5 22t-153.5 63q-49 35 -71.5 88t-22.5 136v371q0 57 -86 106z" />
<glyph unicode="&#x2000;" horiz-adv-x="932" />
<glyph unicode="&#x2001;" horiz-adv-x="1865" />
<glyph unicode="&#x2002;" horiz-adv-x="932" />
<glyph unicode="&#x2003;" horiz-adv-x="1865" />
<glyph unicode="&#x2004;" horiz-adv-x="621" />
<glyph unicode="&#x2005;" horiz-adv-x="466" />
<glyph unicode="&#x2006;" horiz-adv-x="310" />
<glyph unicode="&#x2007;" horiz-adv-x="310" />
<glyph unicode="&#x2008;" horiz-adv-x="233" />
<glyph unicode="&#x2009;" horiz-adv-x="373" />
<glyph unicode="&#x200a;" horiz-adv-x="103" />
<glyph unicode="&#x2010;" horiz-adv-x="528" d="M45 565v123h440v-123h-440z" />
<glyph unicode="&#x2011;" horiz-adv-x="528" d="M45 565v123h440v-123h-440z" />
<glyph unicode="&#x2012;" horiz-adv-x="528" d="M45 565v123h440v-123h-440z" />
<glyph unicode="&#x2013;" horiz-adv-x="1108" />
<glyph unicode="&#x2014;" horiz-adv-x="2048" />
<glyph unicode="&#x2018;" horiz-adv-x="557" />
<glyph unicode="&#x2019;" horiz-adv-x="557" />
<glyph unicode="&#x201a;" horiz-adv-x="557" />
<glyph unicode="&#x201c;" horiz-adv-x="910" />
<glyph unicode="&#x201d;" horiz-adv-x="910" />
<glyph unicode="&#x201e;" horiz-adv-x="910" />
<glyph unicode="&#x2026;" horiz-adv-x="2048" />
<glyph unicode="&#x202f;" horiz-adv-x="373" />
<glyph unicode="&#x2039;" horiz-adv-x="631" />
<glyph unicode="&#x203a;" horiz-adv-x="631" />
<glyph unicode="&#x205f;" horiz-adv-x="466" />
<glyph unicode="&#x20ac;" horiz-adv-x="1014" />
<glyph unicode="&#x2122;" horiz-adv-x="1497" />
<glyph unicode="&#x25fc;" horiz-adv-x="1475" d="M0 0v1475h1475v-1475h-1475z" />
</font>
</defs>
</svg>
